<svg width="720" height="720" viewBox="0 0 720 720" fill="none" xmlns="http://www.w3.org/2000/svg">
<g opacity="0.1">
<rect width="180" height="180" transform="translate(540 -0.000488281)" fill="#D6BBFB"/>
<path d="M540 89.9995H630C630 139.705 589.706 180 540 180V89.9995Z" fill="white"/>
<path d="M630 -0.000488281C679.706 -0.000488281 720 40.2939 720 89.9995H630V-0.000488281Z" fill="#6941C6"/>
<rect width="180" height="180" transform="translate(540 180)" fill="#E9D7FE"/>
<path d="M630 270H720C720 319.705 679.706 360 630 360V270Z" fill="#9E77ED"/>
<path d="M630 270C580.294 270 540 310.294 540 360H630V270Z" fill="#6941C6"/>
<rect width="180" height="180" transform="translate(180 180)" fill="white"/>
<path d="M360 270H270C270 319.705 310.294 360 360 360V270Z" fill="#9E77ED"/>
<path d="M270 180C319.706 180 360 220.294 360 270H270V180Z" fill="#6941C6"/>
<rect width="180" height="180" transform="translate(360 -0.000488281)" fill="white"/>
<path d="M450 89.9995H540L450 180V89.9995Z" fill="#9E77ED"/>
<path d="M450 -0.000488281V89.9995H360L450 -0.000488281Z" fill="#9E77ED"/>
<rect width="180" height="180" transform="translate(360 360)" fill="#E9D7FE"/>
<path d="M450 450L450 360L540 450L450 450Z" fill="white"/>
<path d="M360 450L450 450L450 540L360 450Z" fill="#9E77ED"/>
<rect width="180" height="180" transform="translate(360 180)" fill="#D6BBFB"/>
<path d="M450 360C400.294 360 360 319.705 360 270C360 220.294 400.294 180 450 180V360Z" fill="#6941C6"/>
<circle cx="450" cy="270" r="45" fill="white"/>
<rect width="180" height="180" transform="translate(0 540)" fill="#E9D7FE"/>
<path d="M-3.93402e-06 629.999C-1.76132e-06 580.294 40.2944 540 90 540C139.706 540 180 580.294 180 630L-3.93402e-06 629.999Z" fill="#9E77ED"/>
<ellipse cx="90" cy="675" rx="45" ry="45" fill="white"/>
<rect width="180" height="180" transform="translate(180 540)" fill="white"/>
<path d="M180 629.999C180 580.294 220.294 540 270 540C319.706 540 360 580.294 360 630L180 629.999Z" fill="#9E77ED"/>
<path d="M270 720C220.294 720 180 679.705 180 630C180 580.294 220.294 540 270 540V720Z" fill="#6941C6"/>
<ellipse cx="315" cy="675" rx="45" ry="45" fill="#D6BBFB"/>
<rect width="180" height="180" transform="translate(0 360)" fill="white"/>
<path d="M180 540C130.294 540 90 499.705 90 450C90 400.294 130.294 360 180 360V540Z" fill="#6941C6"/>
<circle cx="45" cy="450" r="45" fill="#D6BBFB"/>
<rect width="180" height="180" transform="translate(180 360)" fill="#D6BBFB"/>
<path d="M180 540C229.706 540 270 499.705 270 450C270 400.294 229.706 360 180 360V540Z" fill="#6941C6"/>
<path d="M360 359.999L360 540L270 450L360 359.999Z" fill="white"/>
<rect width="180" height="180" transform="translate(0 -0.000488281)" fill="white"/>
<rect x="90" y="89.9995" width="90" height="90" fill="#9E77ED"/>
<rect y="-0.000488281" width="90" height="90" fill="#E9D7FE"/>
<rect width="180" height="180" transform="translate(360 540)" fill="#E9D7FE"/>
<rect x="360" y="540" width="90" height="90" fill="#6941C6"/>
<rect x="450" y="630" width="90" height="90" fill="white"/>
<rect width="180" height="180" transform="translate(0 180)" fill="#E9D7FE"/>
<circle cx="90" cy="270" r="45" fill="white"/>
<path d="M180 360H0L90 270L180 360Z" fill="#6941C6"/>
<rect width="180" height="180" transform="translate(540 540)" fill="white"/>
<circle cx="630" cy="630" r="45" fill="#F4EBFF"/>
<path d="M720 720H540L630 630L720 720Z" fill="#6941C6"/>
<path d="M720 630H540L630 540L720 630Z" fill="#9E77ED"/>
<rect width="180" height="180" transform="translate(180 -0.000488281)" fill="#D6BBFB"/>
<path d="M360 -0.000488281V180H180L360 -0.000488281Z" fill="#6941C6"/>
<circle cx="270" cy="89.9995" r="45" fill="white"/>
<rect width="180" height="180" transform="translate(540 360)" fill="white"/>
<path d="M540 360L720 360L720 540L540 360Z" fill="#9E77ED"/>
<circle cx="630" cy="450" r="45" fill="#6941C6"/>
</g>
</svg>
