<svg width="414" height="117" viewBox="0 0 414 117" fill="none" xmlns="http://www.w3.org/2000/svg">
<mask id="path-1-outside-1_3076_91649" maskUnits="userSpaceOnUse" x="-0.439453" y="-0.299805" width="414" height="117" fill="black">
<rect fill="white" x="-0.439453" y="-0.299805" width="414" height="117"/>
<path d="M21.5805 94.6602C19.0605 98.2069 17.9405 101.1 18.2205 103.34C18.5005 105.487 19.8072 107.12 22.1405 108.24C24.5672 109.267 27.5539 109.92 31.1005 110.2L30.5405 113C25.6872 112.814 21.8139 112.72 18.9205 112.72C16.0272 112.627 13.2739 112.58 10.6605 112.58C8.70055 112.58 7.06721 112.627 5.76055 112.72C4.45388 112.72 3.05388 112.814 1.56055 113L2.12055 110.2C3.98721 109.64 5.71388 108.8 7.30055 107.68C8.79388 106.56 10.4739 104.88 12.3405 102.64C14.2072 100.307 16.4939 97.2735 19.2005 93.5402L76.3205 13.1802C78.0005 13.3669 79.7739 13.4602 81.6405 13.4602C83.6005 13.4602 85.3272 13.3669 86.8205 13.1802L92.4206 101.24C92.7006 104.6 93.5406 106.934 94.9406 108.24C96.4339 109.454 97.8806 110.107 99.2806 110.2L98.7206 113C96.0139 112.814 92.3739 112.72 87.8006 112.72C83.2272 112.627 78.9805 112.58 75.0605 112.58C70.3005 112.58 65.7739 112.627 61.4806 112.72C57.1872 112.72 53.7806 112.814 51.2606 113L51.8205 110.2C56.3005 110.014 59.4739 109.22 61.3406 107.82C63.3006 106.327 64.1406 103.2 63.8605 98.4402L60.6405 37.1202L68.0605 29.0002L21.5805 94.6602ZM35.8605 72.6802H76.7405L75.6206 75.4802H33.3405L35.8605 72.6802Z"/>
<path d="M156.533 47.7602C155.04 47.7602 153.453 48.6002 151.773 50.2802C150.186 51.9602 148.6 54.2935 147.013 57.2802C145.426 60.2669 143.933 63.6735 142.533 67.5002C141.133 71.3269 139.92 75.3869 138.893 79.6802L141.553 65.9602C144.073 59.5202 146.546 54.2935 148.973 50.2802C151.493 46.1735 154.2 43.1869 157.093 41.3202C159.986 39.3602 163.206 38.3802 166.753 38.3802C173.286 38.3802 178.093 40.3869 181.173 44.4002C184.346 48.3202 185.933 53.9202 185.933 61.2002C185.933 65.5869 185.28 70.2535 183.973 75.2002C182.666 80.0535 180.753 84.8602 178.233 89.6202C175.713 94.2869 172.633 98.5335 168.993 102.36C165.353 106.187 161.153 109.267 156.393 111.6C151.726 113.84 146.5 114.96 140.713 114.96C138.1 114.96 135.72 114.587 133.573 113.84C131.52 113.094 129.886 112.207 128.673 111.18L129.653 109.36C130.4 109.64 131.146 109.874 131.893 110.06C132.64 110.247 133.48 110.34 134.413 110.34C136.933 110.34 139.406 109.22 141.833 106.98C144.353 104.647 146.686 101.567 148.833 97.7402C150.98 93.8202 152.893 89.4802 154.573 84.7202C156.253 79.9602 157.56 75.1069 158.493 70.1602C159.426 65.1202 159.893 60.3135 159.893 55.7402C159.893 52.4735 159.613 50.3269 159.053 49.3002C158.493 48.2735 157.653 47.7602 156.533 47.7602ZM130.073 112.02C126.433 110.994 122.466 110.947 118.173 111.88C113.973 112.72 110.006 113.84 106.273 115.24L104.173 114.26C104.826 112.954 105.433 111.647 105.993 110.34C106.46 108.94 106.88 107.494 107.253 106L133.013 19.6202C133.946 16.4469 133.853 14.1135 132.733 12.6202C131.613 11.1269 128.766 10.3802 124.193 10.3802L125.173 7.4402C132.826 7.34686 139.593 6.83352 145.473 5.90019C151.446 4.87353 157.186 3.47353 162.693 1.7002L130.073 112.02Z"/>
<path d="M238.04 41.1802C236.454 41.1802 234.587 42.5335 232.44 45.2402C230.294 47.8535 228.1 51.4002 225.86 55.8802C223.62 60.3602 221.52 65.3535 219.56 70.8602C217.694 76.3669 216.154 82.0135 214.94 87.8002C213.82 93.5869 213.26 99.0935 213.26 104.32C213.26 107.214 213.447 109.267 213.82 110.48C214.287 111.6 214.987 112.16 215.92 112.16C217.414 112.16 219.187 110.9 221.24 108.38C223.387 105.86 225.534 102.454 227.68 98.1602C229.92 93.8669 231.974 89.0135 233.84 83.6002C235.8 78.1869 237.387 72.5402 238.6 66.6602C239.814 60.6869 240.42 54.9002 240.42 49.3002C240.42 45.7535 240.187 43.5135 239.72 42.5802C239.254 41.6469 238.694 41.1802 238.04 41.1802ZM190.02 91.1602C190.02 86.7735 190.627 82.1535 191.84 77.3002C193.054 72.4469 194.92 67.7335 197.44 63.1602C199.96 58.4935 203.134 54.2935 206.96 50.5602C210.88 46.8269 215.454 43.8869 220.68 41.7402C226 39.5002 232.02 38.3802 238.74 38.3802C246.86 38.3802 253.02 40.4335 257.22 44.5402C261.514 48.6469 263.66 54.5269 263.66 62.1802C263.66 66.5669 263.054 71.1869 261.84 76.0402C260.627 80.8935 258.76 85.6535 256.24 90.3202C253.72 94.8935 250.5 99.0469 246.58 102.78C242.754 106.514 238.18 109.5 232.86 111.74C227.634 113.887 221.66 114.96 214.94 114.96C206.82 114.96 200.614 112.907 196.32 108.8C192.12 104.694 190.02 98.8135 190.02 91.1602Z"/>
<path d="M321.85 63.4402C318.21 74.3602 314.803 83.2269 311.63 90.0402C308.457 96.7602 305.33 101.94 302.25 105.58C299.263 109.127 296.137 111.6 292.87 113C289.697 114.307 286.243 114.96 282.51 114.96C278.777 114.96 275.79 114.167 273.55 112.58C271.31 110.994 269.957 108.66 269.49 105.58C269.117 102.407 269.677 98.4869 271.17 93.8202L284.75 52.2402C285.683 49.5335 285.777 47.9002 285.03 47.3402C284.377 46.6869 283.723 46.3602 283.07 46.3602C282.23 46.3602 281.157 46.8735 279.85 47.9002C278.543 48.8335 277.143 51.2602 275.65 55.1802L272.71 63.0202H270.05L273.55 52.8002C274.95 48.8802 276.723 45.8935 278.87 43.8402C281.11 41.7869 283.49 40.3869 286.01 39.6402C288.623 38.8002 291.143 38.3802 293.57 38.3802C297.77 38.3802 301.13 39.2669 303.65 41.0402C306.17 42.7202 307.71 45.3335 308.27 48.8802C308.83 52.4269 308.177 56.9535 306.31 62.4602L294.27 98.7202C292.59 103.76 292.683 106.28 294.55 106.28C296.043 106.28 297.817 105.02 299.87 102.5C301.923 99.9802 304.117 96.5269 306.45 92.1402C308.783 87.7535 311.117 82.7602 313.45 77.1602C315.783 71.4669 318.023 65.5402 320.17 59.3802C322.317 53.1269 324.183 46.9202 325.77 40.7602L321.85 63.4402ZM333.47 101.1C332.817 103.247 332.537 104.787 332.63 105.72C332.817 106.56 333.517 106.98 334.73 106.98C336.13 106.98 337.437 106.374 338.65 105.16C339.957 103.854 341.217 101.52 342.43 98.1602L345.65 89.6202H348.31L344.39 100.54C343.177 103.994 341.497 106.794 339.35 108.94C337.297 111.087 334.963 112.627 332.35 113.56C329.83 114.494 327.17 114.96 324.37 114.96C321.103 114.96 318.443 114.447 316.39 113.42C314.43 112.487 312.937 111.18 311.91 109.5C310.79 107.634 310.23 105.487 310.23 103.06C310.323 100.54 310.697 97.9735 311.35 95.3602L325.77 40.3402C330.623 40.2469 335.15 40.0602 339.35 39.7802C343.55 39.5002 347.47 39.0335 351.11 38.3802L333.47 101.1Z"/>
<path d="M412.316 40.3402L411.896 43.1402H359.956L360.656 40.3402H412.316ZM380.536 101.1C379.976 103.06 379.93 104.554 380.396 105.58C380.956 106.514 381.843 106.98 383.056 106.98C384.923 106.98 386.79 105.954 388.656 103.9C390.523 101.847 392.016 99.3269 393.136 96.3402L395.376 90.3202H398.036L395.376 98.0202C393.603 103.34 390.803 107.494 386.976 110.48C383.149 113.467 378.53 114.96 373.116 114.96C368.45 114.96 364.856 113.887 362.336 111.74C359.816 109.5 358.323 106.56 357.856 102.92C357.39 99.2802 357.763 95.2669 358.976 90.8802L379.416 19.7602C384.55 19.6669 389.123 19.4802 393.136 19.2002C397.15 18.9202 401.07 18.4535 404.896 17.8002L380.536 101.1Z"/>
</mask>
<path d="M21.5805 94.6602C19.0605 98.2069 17.9405 101.1 18.2205 103.34C18.5005 105.487 19.8072 107.12 22.1405 108.24C24.5672 109.267 27.5539 109.92 31.1005 110.2L30.5405 113C25.6872 112.814 21.8139 112.72 18.9205 112.72C16.0272 112.627 13.2739 112.58 10.6605 112.58C8.70055 112.58 7.06721 112.627 5.76055 112.72C4.45388 112.72 3.05388 112.814 1.56055 113L2.12055 110.2C3.98721 109.64 5.71388 108.8 7.30055 107.68C8.79388 106.56 10.4739 104.88 12.3405 102.64C14.2072 100.307 16.4939 97.2735 19.2005 93.5402L76.3205 13.1802C78.0005 13.3669 79.7739 13.4602 81.6405 13.4602C83.6005 13.4602 85.3272 13.3669 86.8205 13.1802L92.4206 101.24C92.7006 104.6 93.5406 106.934 94.9406 108.24C96.4339 109.454 97.8806 110.107 99.2806 110.2L98.7206 113C96.0139 112.814 92.3739 112.72 87.8006 112.72C83.2272 112.627 78.9805 112.58 75.0605 112.58C70.3005 112.58 65.7739 112.627 61.4806 112.72C57.1872 112.72 53.7806 112.814 51.2606 113L51.8205 110.2C56.3005 110.014 59.4739 109.22 61.3406 107.82C63.3006 106.327 64.1406 103.2 63.8605 98.4402L60.6405 37.1202L68.0605 29.0002L21.5805 94.6602ZM35.8605 72.6802H76.7405L75.6206 75.4802H33.3405L35.8605 72.6802Z" stroke="#DC965A" stroke-opacity="0.35" stroke-width="2" mask="url(#path-1-outside-1_3076_91649)"/>
<path d="M156.533 47.7602C155.04 47.7602 153.453 48.6002 151.773 50.2802C150.186 51.9602 148.6 54.2935 147.013 57.2802C145.426 60.2669 143.933 63.6735 142.533 67.5002C141.133 71.3269 139.92 75.3869 138.893 79.6802L141.553 65.9602C144.073 59.5202 146.546 54.2935 148.973 50.2802C151.493 46.1735 154.2 43.1869 157.093 41.3202C159.986 39.3602 163.206 38.3802 166.753 38.3802C173.286 38.3802 178.093 40.3869 181.173 44.4002C184.346 48.3202 185.933 53.9202 185.933 61.2002C185.933 65.5869 185.28 70.2535 183.973 75.2002C182.666 80.0535 180.753 84.8602 178.233 89.6202C175.713 94.2869 172.633 98.5335 168.993 102.36C165.353 106.187 161.153 109.267 156.393 111.6C151.726 113.84 146.5 114.96 140.713 114.96C138.1 114.96 135.72 114.587 133.573 113.84C131.52 113.094 129.886 112.207 128.673 111.18L129.653 109.36C130.4 109.64 131.146 109.874 131.893 110.06C132.64 110.247 133.48 110.34 134.413 110.34C136.933 110.34 139.406 109.22 141.833 106.98C144.353 104.647 146.686 101.567 148.833 97.7402C150.98 93.8202 152.893 89.4802 154.573 84.7202C156.253 79.9602 157.56 75.1069 158.493 70.1602C159.426 65.1202 159.893 60.3135 159.893 55.7402C159.893 52.4735 159.613 50.3269 159.053 49.3002C158.493 48.2735 157.653 47.7602 156.533 47.7602ZM130.073 112.02C126.433 110.994 122.466 110.947 118.173 111.88C113.973 112.72 110.006 113.84 106.273 115.24L104.173 114.26C104.826 112.954 105.433 111.647 105.993 110.34C106.46 108.94 106.88 107.494 107.253 106L133.013 19.6202C133.946 16.4469 133.853 14.1135 132.733 12.6202C131.613 11.1269 128.766 10.3802 124.193 10.3802L125.173 7.4402C132.826 7.34686 139.593 6.83352 145.473 5.90019C151.446 4.87353 157.186 3.47353 162.693 1.7002L130.073 112.02Z" stroke="#DC965A" stroke-opacity="0.35" stroke-width="2" mask="url(#path-1-outside-1_3076_91649)"/>
<path d="M238.04 41.1802C236.454 41.1802 234.587 42.5335 232.44 45.2402C230.294 47.8535 228.1 51.4002 225.86 55.8802C223.62 60.3602 221.52 65.3535 219.56 70.8602C217.694 76.3669 216.154 82.0135 214.94 87.8002C213.82 93.5869 213.26 99.0935 213.26 104.32C213.26 107.214 213.447 109.267 213.82 110.48C214.287 111.6 214.987 112.16 215.92 112.16C217.414 112.16 219.187 110.9 221.24 108.38C223.387 105.86 225.534 102.454 227.68 98.1602C229.92 93.8669 231.974 89.0135 233.84 83.6002C235.8 78.1869 237.387 72.5402 238.6 66.6602C239.814 60.6869 240.42 54.9002 240.42 49.3002C240.42 45.7535 240.187 43.5135 239.72 42.5802C239.254 41.6469 238.694 41.1802 238.04 41.1802ZM190.02 91.1602C190.02 86.7735 190.627 82.1535 191.84 77.3002C193.054 72.4469 194.92 67.7335 197.44 63.1602C199.96 58.4935 203.134 54.2935 206.96 50.5602C210.88 46.8269 215.454 43.8869 220.68 41.7402C226 39.5002 232.02 38.3802 238.74 38.3802C246.86 38.3802 253.02 40.4335 257.22 44.5402C261.514 48.6469 263.66 54.5269 263.66 62.1802C263.66 66.5669 263.054 71.1869 261.84 76.0402C260.627 80.8935 258.76 85.6535 256.24 90.3202C253.72 94.8935 250.5 99.0469 246.58 102.78C242.754 106.514 238.18 109.5 232.86 111.74C227.634 113.887 221.66 114.96 214.94 114.96C206.82 114.96 200.614 112.907 196.32 108.8C192.12 104.694 190.02 98.8135 190.02 91.1602Z" stroke="#DC965A" stroke-opacity="0.35" stroke-width="2" mask="url(#path-1-outside-1_3076_91649)"/>
<path d="M321.85 63.4402C318.21 74.3602 314.803 83.2269 311.63 90.0402C308.457 96.7602 305.33 101.94 302.25 105.58C299.263 109.127 296.137 111.6 292.87 113C289.697 114.307 286.243 114.96 282.51 114.96C278.777 114.96 275.79 114.167 273.55 112.58C271.31 110.994 269.957 108.66 269.49 105.58C269.117 102.407 269.677 98.4869 271.17 93.8202L284.75 52.2402C285.683 49.5335 285.777 47.9002 285.03 47.3402C284.377 46.6869 283.723 46.3602 283.07 46.3602C282.23 46.3602 281.157 46.8735 279.85 47.9002C278.543 48.8335 277.143 51.2602 275.65 55.1802L272.71 63.0202H270.05L273.55 52.8002C274.95 48.8802 276.723 45.8935 278.87 43.8402C281.11 41.7869 283.49 40.3869 286.01 39.6402C288.623 38.8002 291.143 38.3802 293.57 38.3802C297.77 38.3802 301.13 39.2669 303.65 41.0402C306.17 42.7202 307.71 45.3335 308.27 48.8802C308.83 52.4269 308.177 56.9535 306.31 62.4602L294.27 98.7202C292.59 103.76 292.683 106.28 294.55 106.28C296.043 106.28 297.817 105.02 299.87 102.5C301.923 99.9802 304.117 96.5269 306.45 92.1402C308.783 87.7535 311.117 82.7602 313.45 77.1602C315.783 71.4669 318.023 65.5402 320.17 59.3802C322.317 53.1269 324.183 46.9202 325.77 40.7602L321.85 63.4402ZM333.47 101.1C332.817 103.247 332.537 104.787 332.63 105.72C332.817 106.56 333.517 106.98 334.73 106.98C336.13 106.98 337.437 106.374 338.65 105.16C339.957 103.854 341.217 101.52 342.43 98.1602L345.65 89.6202H348.31L344.39 100.54C343.177 103.994 341.497 106.794 339.35 108.94C337.297 111.087 334.963 112.627 332.35 113.56C329.83 114.494 327.17 114.96 324.37 114.96C321.103 114.96 318.443 114.447 316.39 113.42C314.43 112.487 312.937 111.18 311.91 109.5C310.79 107.634 310.23 105.487 310.23 103.06C310.323 100.54 310.697 97.9735 311.35 95.3602L325.77 40.3402C330.623 40.2469 335.15 40.0602 339.35 39.7802C343.55 39.5002 347.47 39.0335 351.11 38.3802L333.47 101.1Z" stroke="#DC965A" stroke-opacity="0.35" stroke-width="2" mask="url(#path-1-outside-1_3076_91649)"/>
<path d="M412.316 40.3402L411.896 43.1402H359.956L360.656 40.3402H412.316ZM380.536 101.1C379.976 103.06 379.93 104.554 380.396 105.58C380.956 106.514 381.843 106.98 383.056 106.98C384.923 106.98 386.79 105.954 388.656 103.9C390.523 101.847 392.016 99.3269 393.136 96.3402L395.376 90.3202H398.036L395.376 98.0202C393.603 103.34 390.803 107.494 386.976 110.48C383.149 113.467 378.53 114.96 373.116 114.96C368.45 114.96 364.856 113.887 362.336 111.74C359.816 109.5 358.323 106.56 357.856 102.92C357.39 99.2802 357.763 95.2669 358.976 90.8802L379.416 19.7602C384.55 19.6669 389.123 19.4802 393.136 19.2002C397.15 18.9202 401.07 18.4535 404.896 17.8002L380.536 101.1Z" stroke="#DC965A" stroke-opacity="0.35" stroke-width="2" mask="url(#path-1-outside-1_3076_91649)"/>
</svg>
