<svg width="383" height="81" viewBox="0 0 383 81" fill="none" xmlns="http://www.w3.org/2000/svg">
<path d="M24.3722 78.9077H24.7435L24.8508 78.5522L29.156 64.2912H53.594L57.8992 78.5522L58.0065 78.9077H58.3778H80.75H81.4416L81.2248 78.251L56.0188 1.88731L55.9055 1.54403H55.544H27.206H26.8445L26.7312 1.88731L1.5252 78.251L1.30843 78.9077H2H24.3722ZM48.6094 47.7798H34.1406L41.375 23.8158L48.6094 47.7798ZM87.6049 78.4077V78.9077H88.1049H124.049C129.648 78.9077 134.496 77.9664 138.579 76.0644C142.653 74.1665 145.811 71.5497 148.031 68.2075C150.277 64.8635 151.396 61.0494 151.396 56.7812C151.396 53.1022 150.584 49.8789 148.94 47.13C147.305 44.3717 145.105 42.2088 142.344 40.649C139.845 39.2146 137.096 38.3797 134.106 38.1408C136.769 37.5064 139.133 36.4755 141.189 35.0431L141.192 35.0409C143.466 33.4316 145.234 31.4342 146.49 29.051C147.774 26.6618 148.413 24.0198 148.413 21.1349C148.413 17.1652 147.368 13.6935 145.264 10.7417C143.183 7.78747 140.101 5.52197 136.054 3.92827C132.025 2.33215 127.074 1.54403 121.216 1.54403H88.1049H87.6049V2.04403V78.4077ZM124.037 47.1726L124.04 47.1737C125.476 47.7858 126.563 48.6706 127.324 49.823C128.08 50.9689 128.471 52.3847 128.471 54.0966C128.471 56.53 127.653 58.3074 126.061 59.5132C124.446 60.7126 121.963 61.3523 118.531 61.3523H109.336V46.2443H118.829C120.893 46.2443 122.624 46.5603 124.037 47.1726ZM124.987 29.305L124.986 29.3067C124.278 30.2896 123.276 31.0561 121.958 31.5975C120.637 32.14 119.1 32.4176 117.338 32.4176H109.336V18.8011H117.636C120.138 18.8011 122.164 19.4133 123.749 20.6028L123.753 20.6056C125.298 21.7414 126.085 23.3839 126.085 25.6094C126.085 27.087 125.711 28.3097 124.987 29.305ZM227.694 61.9875L227.695 61.9867C231.053 56.0525 232.719 48.791 232.719 40.2259C232.719 31.6612 231.054 24.412 227.695 18.5023C224.345 12.5829 219.815 8.10065 214.109 5.07051C208.413 2.02088 202.066 0.5 195.081 0.5C188.046 0.5 181.675 2.02073 175.978 5.07092C170.296 8.10123 165.78 12.5834 162.43 18.5023L162.43 18.5029C159.096 24.4124 157.443 31.6614 157.443 40.2259C157.443 48.7413 159.096 55.9772 162.429 61.9107L162.43 61.9129C165.78 67.8065 170.296 72.3 175.976 75.3795L175.978 75.3808C181.675 78.431 188.046 79.9517 195.081 79.9517C202.066 79.9517 208.412 78.4434 214.108 75.4189L214.11 75.4181C219.815 72.3634 224.344 67.882 227.694 61.9875ZM203.444 21.917L203.449 21.9205C205.712 23.4686 207.432 25.7648 208.596 28.8437L208.598 28.8481C209.787 31.9057 210.391 35.693 210.391 40.2259C210.391 44.7585 209.787 48.5589 208.597 51.6421L208.596 51.6441C207.433 54.6977 205.713 56.9958 203.447 58.5699C201.21 60.1168 198.431 60.9048 195.081 60.9048C191.732 60.9048 188.94 60.1173 186.677 58.5698C184.437 56.9958 182.716 54.6974 181.528 51.6433C180.363 48.5593 179.771 44.7584 179.771 40.2259C179.771 35.6924 180.363 31.904 181.528 28.8454C182.717 25.7646 184.439 23.4673 186.678 21.9191L186.678 21.9184C188.941 20.3465 191.733 19.5469 195.081 19.5469C198.43 19.5469 201.208 20.3466 203.444 21.917ZM287.003 1.54403H286.503V2.04403V49.1747C286.503 51.459 285.999 53.4856 285.001 55.2672C284.002 57.0279 282.625 58.4046 280.865 59.4039C279.11 60.4 277.084 60.9048 274.773 60.9048C272.488 60.9048 270.461 60.4007 268.679 59.4032C266.919 58.4038 265.543 57.0274 264.544 55.2671C263.546 53.4855 263.042 51.459 263.042 49.1747V2.04403V1.54403H262.542H241.811H241.311V2.04403V50.9645C241.311 56.8624 242.698 61.9932 245.492 66.3362L245.494 66.3391C248.308 70.6493 252.236 73.9773 257.26 76.3251L257.262 76.326C262.286 78.649 268.128 79.8026 274.773 79.8026C281.368 79.8026 287.185 78.6488 292.209 76.326L292.211 76.3251C297.235 73.9773 301.162 70.6493 303.977 66.3391C306.821 61.9957 308.234 56.8638 308.234 50.9645V2.04403V1.54403H307.734H287.003ZM314.999 18.7486V19.2486H315.499H337.968V78.4077V78.9077H338.468H358.901H359.401V78.4077V19.2486H381.87H382.37V18.7486V2.04403V1.54403H381.87H315.499H314.999V2.04403V18.7486Z" stroke="black" stroke-opacity="0.2"/>
</svg>
