<svg width="531" height="81" viewBox="0 0 531 81" fill="none" xmlns="http://www.w3.org/2000/svg">
<mask id="path-1-outside-1_3039_91798" maskUnits="userSpaceOnUse" x="0.236328" y="0" width="530" height="81" fill="black">
<rect fill="white" x="0.236328" width="530" height="81"/>
<path d="M72.8272 30.6804H51.7974C51.6483 28.9403 51.2505 27.3619 50.6042 25.945C49.9828 24.5281 49.1128 23.31 47.9941 22.2908C46.9004 21.2468 45.5705 20.4514 44.0044 19.9045C42.4384 19.3327 40.661 19.0469 38.6724 19.0469C35.1923 19.0469 32.2466 19.892 29.8354 21.5824C27.449 23.2727 25.6344 25.6964 24.3915 28.8533C23.1735 32.0103 22.5645 35.8011 22.5645 40.2259C22.5645 44.8991 23.1859 48.8143 24.4288 51.9712C25.6966 55.1033 27.5236 57.4648 29.91 59.0558C32.2963 60.6218 35.1674 61.4048 38.5233 61.4048C40.4373 61.4048 42.1525 61.1687 43.6689 60.6964C45.1852 60.1992 46.5027 59.4908 47.6213 58.571C48.7399 57.6513 49.6472 56.5451 50.3432 55.2525C51.0641 53.935 51.5488 52.456 51.7974 50.8153L72.8272 50.9645C72.5787 54.196 71.6713 57.4897 70.1053 60.8455C68.5392 64.1765 66.3145 67.2589 63.4309 70.0927C60.5723 72.9016 57.03 75.1637 52.8042 76.8789C48.5783 78.5941 43.6689 79.4517 38.0758 79.4517C31.0659 79.4517 24.7768 77.9478 19.2086 74.94C13.6653 71.9322 9.27788 67.5075 6.04634 61.6658C2.83967 55.8242 1.23633 48.6776 1.23633 40.2259C1.23633 31.7244 2.87695 24.5653 6.1582 18.7486C9.43945 12.907 13.8642 8.49467 19.4324 5.51172C25.0005 2.50391 31.215 1 38.0758 1C42.8983 1 47.3354 1.65874 51.3872 2.97621C55.4391 4.29368 58.9938 6.22017 62.0513 8.75568C65.1088 11.2663 67.5698 14.3612 69.4341 18.0401C71.2985 21.7191 72.4295 25.9325 72.8272 30.6804Z"/>
<path d="M156.21 40.2259C156.21 48.7273 154.557 55.8988 151.251 61.7404C147.945 67.5572 143.483 71.9695 137.865 74.9773C132.247 77.9602 125.983 79.4517 119.072 79.4517C112.112 79.4517 105.823 77.9478 100.205 74.94C94.6121 71.9073 90.1626 67.4826 86.8564 61.6658C83.5752 55.8242 81.9346 48.6776 81.9346 40.2259C81.9346 31.7244 83.5752 24.5653 86.8564 18.7486C90.1626 12.907 94.6121 8.49467 100.205 5.51172C105.823 2.50391 112.112 1 119.072 1C125.983 1 132.247 2.50391 137.865 5.51172C143.483 8.49467 147.945 12.907 151.251 18.7486C154.557 24.5653 156.21 31.7244 156.21 40.2259ZM134.882 40.2259C134.882 35.652 134.273 31.799 133.055 28.6669C131.862 25.5099 130.084 23.1236 127.723 21.5078C125.386 19.8672 122.503 19.0469 119.072 19.0469C115.642 19.0469 112.746 19.8672 110.384 21.5078C108.048 23.1236 106.271 25.5099 105.052 28.6669C103.859 31.799 103.263 35.652 103.263 40.2259C103.263 44.7997 103.859 48.6651 105.052 51.8221C106.271 54.9542 108.048 57.3406 110.384 58.9812C112.746 60.5969 115.642 61.4048 119.072 61.4048C122.503 61.4048 125.386 60.5969 127.723 58.9812C130.084 57.3406 131.862 54.9542 133.055 51.8221C134.273 48.6651 134.882 44.7997 134.882 40.2259Z"/>
<path d="M231.875 2.04403V78.4077H214.574L186.981 38.2869H186.534V78.4077H165.802V2.04403H183.402L210.547 42.0156H211.143V2.04403H231.875Z"/>
<path d="M239.593 18.7486V2.04403H305.964V18.7486H282.995V78.4077H262.562V18.7486H239.593Z"/>
<path d="M323.964 78.4077H301.592L326.798 2.04403H355.136L380.342 78.4077H357.97L341.265 23.0739H340.669L323.964 78.4077ZM319.788 48.2798H361.848V63.7912H319.788V48.2798Z"/>
<path d="M455.4 30.6804H434.371C434.222 28.9403 433.824 27.3619 433.177 25.945C432.556 24.5281 431.686 23.31 430.567 22.2908C429.474 21.2468 428.144 20.4514 426.578 19.9045C425.012 19.3327 423.234 19.0469 421.246 19.0469C417.766 19.0469 414.82 19.892 412.409 21.5824C410.022 23.2727 408.208 25.6964 406.965 28.8533C405.747 32.0103 405.138 35.8011 405.138 40.2259C405.138 44.8991 405.759 48.8143 407.002 51.9712C408.27 55.1033 410.097 57.4648 412.483 59.0558C414.87 60.6218 417.741 61.4048 421.097 61.4048C423.011 61.4048 424.726 61.1687 426.242 60.6964C427.758 60.1992 429.076 59.4908 430.195 58.571C431.313 57.6513 432.22 56.5451 432.916 55.2525C433.637 53.935 434.122 52.456 434.371 50.8153L455.4 50.9645C455.152 54.196 454.245 57.4897 452.679 60.8455C451.113 64.1765 448.888 67.2589 446.004 70.0927C443.146 72.9016 439.603 75.1637 435.377 76.8789C431.152 78.5941 426.242 79.4517 420.649 79.4517C413.639 79.4517 407.35 77.9478 401.782 74.94C396.239 71.9322 391.851 67.5075 388.62 61.6658C385.413 55.8242 383.81 48.6776 383.81 40.2259C383.81 31.7244 385.45 24.5653 388.731 18.7486C392.013 12.907 396.437 8.49467 402.006 5.51172C407.574 2.50391 413.788 1 420.649 1C425.472 1 429.909 1.65874 433.961 2.97621C438.012 4.29368 441.567 6.22017 444.625 8.75568C447.682 11.2663 450.143 14.3612 452.007 18.0401C453.872 21.7191 455.003 25.9325 455.4 30.6804Z"/>
<path d="M462.718 18.7486V2.04403H529.089V18.7486H506.12V78.4077H485.687V18.7486H462.718Z"/>
</mask>
<path d="M72.8272 30.6804H51.7974C51.6483 28.9403 51.2505 27.3619 50.6042 25.945C49.9828 24.5281 49.1128 23.31 47.9941 22.2908C46.9004 21.2468 45.5705 20.4514 44.0044 19.9045C42.4384 19.3327 40.661 19.0469 38.6724 19.0469C35.1923 19.0469 32.2466 19.892 29.8354 21.5824C27.449 23.2727 25.6344 25.6964 24.3915 28.8533C23.1735 32.0103 22.5645 35.8011 22.5645 40.2259C22.5645 44.8991 23.1859 48.8143 24.4288 51.9712C25.6966 55.1033 27.5236 57.4648 29.91 59.0558C32.2963 60.6218 35.1674 61.4048 38.5233 61.4048C40.4373 61.4048 42.1525 61.1687 43.6689 60.6964C45.1852 60.1992 46.5027 59.4908 47.6213 58.571C48.7399 57.6513 49.6472 56.5451 50.3432 55.2525C51.0641 53.935 51.5488 52.456 51.7974 50.8153L72.8272 50.9645C72.5787 54.196 71.6713 57.4897 70.1053 60.8455C68.5392 64.1765 66.3145 67.2589 63.4309 70.0927C60.5723 72.9016 57.03 75.1637 52.8042 76.8789C48.5783 78.5941 43.6689 79.4517 38.0758 79.4517C31.0659 79.4517 24.7768 77.9478 19.2086 74.94C13.6653 71.9322 9.27788 67.5075 6.04634 61.6658C2.83967 55.8242 1.23633 48.6776 1.23633 40.2259C1.23633 31.7244 2.87695 24.5653 6.1582 18.7486C9.43945 12.907 13.8642 8.49467 19.4324 5.51172C25.0005 2.50391 31.215 1 38.0758 1C42.8983 1 47.3354 1.65874 51.3872 2.97621C55.4391 4.29368 58.9938 6.22017 62.0513 8.75568C65.1088 11.2663 67.5698 14.3612 69.4341 18.0401C71.2985 21.7191 72.4295 25.9325 72.8272 30.6804Z" stroke="black" stroke-opacity="0.2" stroke-width="2" mask="url(#path-1-outside-1_3039_91798)"/>
<path d="M156.21 40.2259C156.21 48.7273 154.557 55.8988 151.251 61.7404C147.945 67.5572 143.483 71.9695 137.865 74.9773C132.247 77.9602 125.983 79.4517 119.072 79.4517C112.112 79.4517 105.823 77.9478 100.205 74.94C94.6121 71.9073 90.1626 67.4826 86.8564 61.6658C83.5752 55.8242 81.9346 48.6776 81.9346 40.2259C81.9346 31.7244 83.5752 24.5653 86.8564 18.7486C90.1626 12.907 94.6121 8.49467 100.205 5.51172C105.823 2.50391 112.112 1 119.072 1C125.983 1 132.247 2.50391 137.865 5.51172C143.483 8.49467 147.945 12.907 151.251 18.7486C154.557 24.5653 156.21 31.7244 156.21 40.2259ZM134.882 40.2259C134.882 35.652 134.273 31.799 133.055 28.6669C131.862 25.5099 130.084 23.1236 127.723 21.5078C125.386 19.8672 122.503 19.0469 119.072 19.0469C115.642 19.0469 112.746 19.8672 110.384 21.5078C108.048 23.1236 106.271 25.5099 105.052 28.6669C103.859 31.799 103.263 35.652 103.263 40.2259C103.263 44.7997 103.859 48.6651 105.052 51.8221C106.271 54.9542 108.048 57.3406 110.384 58.9812C112.746 60.5969 115.642 61.4048 119.072 61.4048C122.503 61.4048 125.386 60.5969 127.723 58.9812C130.084 57.3406 131.862 54.9542 133.055 51.8221C134.273 48.6651 134.882 44.7997 134.882 40.2259Z" stroke="black" stroke-opacity="0.2" stroke-width="2" mask="url(#path-1-outside-1_3039_91798)"/>
<path d="M231.875 2.04403V78.4077H214.574L186.981 38.2869H186.534V78.4077H165.802V2.04403H183.402L210.547 42.0156H211.143V2.04403H231.875Z" stroke="black" stroke-opacity="0.2" stroke-width="2" mask="url(#path-1-outside-1_3039_91798)"/>
<path d="M239.593 18.7486V2.04403H305.964V18.7486H282.995V78.4077H262.562V18.7486H239.593Z" stroke="black" stroke-opacity="0.2" stroke-width="2" mask="url(#path-1-outside-1_3039_91798)"/>
<path d="M323.964 78.4077H301.592L326.798 2.04403H355.136L380.342 78.4077H357.97L341.265 23.0739H340.669L323.964 78.4077ZM319.788 48.2798H361.848V63.7912H319.788V48.2798Z" stroke="black" stroke-opacity="0.2" stroke-width="2" mask="url(#path-1-outside-1_3039_91798)"/>
<path d="M455.4 30.6804H434.371C434.222 28.9403 433.824 27.3619 433.177 25.945C432.556 24.5281 431.686 23.31 430.567 22.2908C429.474 21.2468 428.144 20.4514 426.578 19.9045C425.012 19.3327 423.234 19.0469 421.246 19.0469C417.766 19.0469 414.82 19.892 412.409 21.5824C410.022 23.2727 408.208 25.6964 406.965 28.8533C405.747 32.0103 405.138 35.8011 405.138 40.2259C405.138 44.8991 405.759 48.8143 407.002 51.9712C408.27 55.1033 410.097 57.4648 412.483 59.0558C414.87 60.6218 417.741 61.4048 421.097 61.4048C423.011 61.4048 424.726 61.1687 426.242 60.6964C427.758 60.1992 429.076 59.4908 430.195 58.571C431.313 57.6513 432.22 56.5451 432.916 55.2525C433.637 53.935 434.122 52.456 434.371 50.8153L455.4 50.9645C455.152 54.196 454.245 57.4897 452.679 60.8455C451.113 64.1765 448.888 67.2589 446.004 70.0927C443.146 72.9016 439.603 75.1637 435.377 76.8789C431.152 78.5941 426.242 79.4517 420.649 79.4517C413.639 79.4517 407.35 77.9478 401.782 74.94C396.239 71.9322 391.851 67.5075 388.62 61.6658C385.413 55.8242 383.81 48.6776 383.81 40.2259C383.81 31.7244 385.45 24.5653 388.731 18.7486C392.013 12.907 396.437 8.49467 402.006 5.51172C407.574 2.50391 413.788 1 420.649 1C425.472 1 429.909 1.65874 433.961 2.97621C438.012 4.29368 441.567 6.22017 444.625 8.75568C447.682 11.2663 450.143 14.3612 452.007 18.0401C453.872 21.7191 455.003 25.9325 455.4 30.6804Z" stroke="black" stroke-opacity="0.2" stroke-width="2" mask="url(#path-1-outside-1_3039_91798)"/>
<path d="M462.718 18.7486V2.04403H529.089V18.7486H506.12V78.4077H485.687V18.7486H462.718Z" stroke="black" stroke-opacity="0.2" stroke-width="2" mask="url(#path-1-outside-1_3039_91798)"/>
</svg>
