<svg width="520" height="106" viewBox="0 0 520 106" fill="none" xmlns="http://www.w3.org/2000/svg">
<mask id="path-1-outside-1_3076_91652" maskUnits="userSpaceOnUse" x="0.179688" y="0.919922" width="519" height="106" fill="black">
<rect fill="white" x="0.179688" y="0.919922" width="519" height="106"/>
<path d="M103.52 3.87993C102.12 7.51993 100.673 11.9533 99.1797 17.1799C97.6864 22.3133 96.1464 28.6133 94.5597 36.0799H91.4797C92.3197 31.4133 92.7397 27.2133 92.7397 23.4799C92.833 19.7466 92.0864 16.5266 90.4997 13.8199C88.7264 10.7399 86.5797 8.63993 84.0597 7.51992C81.5397 6.39993 78.553 5.83993 75.0997 5.83993C70.6197 5.83993 66.2797 7.0066 62.0797 9.33993C57.973 11.5799 54.193 14.7999 50.7397 18.9999C47.2864 23.1066 44.253 27.9133 41.6397 33.4199C39.0264 38.9266 36.973 44.9466 35.4797 51.4799C34.0797 58.0133 33.3797 64.7799 33.3797 71.7799C33.3797 81.4866 35.013 88.5799 38.2797 93.0599C41.6397 97.4466 46.1197 99.6399 51.7197 99.6399C54.7997 99.6399 57.973 98.9399 61.2397 97.5399C64.5997 96.1399 67.493 94.1333 69.9197 91.5199C72.4397 88.8133 74.5864 85.8266 76.3597 82.5599C78.2264 79.1999 80.2797 74.8133 82.5197 69.3999H85.5997C83.2664 77.8933 81.4464 84.7533 80.1397 89.9799C78.9264 95.1133 77.993 99.4533 77.3397 103H74.2597C74.5397 101.04 74.6797 99.4533 74.6797 98.2399C74.6797 96.3733 74.3064 95.2533 73.5597 94.8799C72.813 94.4133 71.6464 94.7399 70.0597 95.8599C67.633 97.5399 64.9264 99.0799 61.9397 100.48C59.0464 101.88 55.9197 102.953 52.5597 103.7C49.293 104.54 45.793 104.96 42.0597 104.96C27.7797 104.96 17.373 101.787 10.8397 95.4399C4.39969 89.0933 1.17969 80.3199 1.17969 69.1199C1.17969 62.3999 2.29969 55.8199 4.53969 49.3799C6.77969 42.8466 9.99969 36.7333 14.1997 31.0399C18.3997 25.3466 23.4397 20.3066 29.3197 15.9199C35.1997 11.5333 41.733 8.12659 48.9197 5.69992C56.1997 3.17992 63.9464 1.91992 72.1597 1.91992C75.893 1.91992 79.0197 2.33992 81.5397 3.17992C84.153 4.01992 86.3464 5.13992 88.1197 6.53993C89.9864 7.93993 91.573 9.43326 92.8797 11.0199C94.093 12.5133 95.3064 12.6533 96.5197 11.4399C97.8264 10.2266 99.1797 7.70659 100.58 3.87993H103.52Z"/>
<path d="M142.887 31.1799C141.3 31.1799 139.434 32.5333 137.287 35.2399C135.14 37.8533 132.947 41.3999 130.707 45.8799C128.467 50.3599 126.367 55.3533 124.407 60.8599C122.54 66.3666 121 72.0133 119.787 77.7999C118.667 83.5866 118.107 89.0933 118.107 94.3199C118.107 97.2133 118.294 99.2666 118.667 100.48C119.134 101.6 119.834 102.16 120.767 102.16C122.26 102.16 124.034 100.9 126.087 98.3799C128.234 95.8599 130.38 92.4533 132.527 88.1599C134.767 83.8666 136.82 79.0133 138.687 73.5999C140.647 68.1866 142.234 62.5399 143.447 56.6599C144.66 50.6866 145.267 44.8999 145.267 39.2999C145.267 35.7533 145.034 33.5133 144.567 32.5799C144.1 31.6466 143.54 31.1799 142.887 31.1799ZM94.867 81.1599C94.867 76.7733 95.4737 72.1533 96.687 67.2999C97.9004 62.4466 99.767 57.7333 102.287 53.1599C104.807 48.4933 107.98 44.2933 111.807 40.5599C115.727 36.8266 120.3 33.8866 125.527 31.7399C130.847 29.4999 136.867 28.3799 143.587 28.3799C151.707 28.3799 157.867 30.4333 162.067 34.5399C166.36 38.6466 168.507 44.5266 168.507 52.1799C168.507 56.5666 167.9 61.1866 166.687 66.0399C165.474 70.8933 163.607 75.6533 161.087 80.3199C158.567 84.8933 155.347 89.0466 151.427 92.7799C147.6 96.5133 143.027 99.4999 137.707 101.74C132.48 103.887 126.507 104.96 119.787 104.96C111.667 104.96 105.46 102.907 101.167 98.7999C96.967 94.6933 94.867 88.8133 94.867 81.1599Z"/>
<path d="M197.157 103H172.377L189.457 42.2399C189.923 40.7466 190.203 39.5799 190.297 38.7399C190.39 37.8999 190.25 37.2933 189.877 36.9199C189.597 36.5466 189.037 36.3599 188.197 36.3599C186.797 36.3599 185.49 37.0133 184.277 38.3199C183.063 39.5333 181.803 41.8199 180.497 45.1799L177.277 53.7199H174.617L178.537 42.7999C180.31 37.8533 182.737 34.2133 185.817 31.8799C188.897 29.5466 192.863 28.3799 197.717 28.3799C201.357 28.3799 204.25 28.9866 206.397 30.1999C208.543 31.3199 210.083 32.8599 211.017 34.8199C211.95 36.7799 212.417 38.9266 212.417 41.2599C212.417 43.4999 212.137 45.7399 211.577 47.9799L197.157 103ZM200.377 82.9799C204.203 71.5933 207.703 62.3533 210.877 55.2599C214.143 48.0733 217.27 42.5199 220.257 38.5999C223.337 34.6799 226.463 32.0199 229.637 30.6199C232.903 29.1266 236.403 28.3799 240.137 28.3799C244.803 28.3799 248.21 29.3133 250.357 31.1799C252.503 33.0466 253.623 35.6133 253.717 38.8799C253.903 42.0533 253.343 45.5999 252.037 49.5199L238.177 91.0999C237.243 93.7133 237.103 95.3466 237.757 95.9999C238.503 96.6533 239.203 96.9799 239.857 96.9799C240.697 96.9799 241.77 96.5133 243.077 95.5799C244.383 94.5533 245.783 92.0799 247.277 88.1599L250.217 80.3199H252.877L249.377 90.5399C248.07 94.4599 246.297 97.4466 244.057 99.4999C241.91 101.553 239.53 102.953 236.917 103.7C234.397 104.54 231.877 104.96 229.357 104.96C226.463 104.96 223.943 104.54 221.797 103.7C219.65 102.86 217.97 101.6 216.757 99.9199C215.357 97.9599 214.563 95.5333 214.377 92.6399C214.283 89.6533 215.03 85.7333 216.617 80.8799L228.657 44.6199C229.217 42.9399 229.543 41.5399 229.637 40.4199C229.823 39.2999 229.823 38.4599 229.637 37.8999C229.45 37.3399 229.03 37.0599 228.377 37.0599C226.883 37.0599 225.11 38.3199 223.057 40.8399C221.003 43.3599 218.81 46.8133 216.477 51.1999C214.237 55.5866 211.95 60.6266 209.617 66.3199C207.283 71.9199 205.043 77.8466 202.897 84.0999C200.75 90.2599 198.883 96.4199 197.297 102.58L200.377 82.9799Z"/>
<path d="M317.436 30.3399L317.016 33.1399H265.076L265.776 30.3399H317.436ZM285.656 91.0999C285.096 93.0599 285.05 94.5533 285.516 95.5799C286.076 96.5133 286.963 96.9799 288.176 96.9799C290.043 96.9799 291.91 95.9533 293.776 93.8999C295.643 91.8466 297.136 89.3266 298.256 86.3399L300.496 80.3199H303.156L300.496 88.0199C298.723 93.3399 295.923 97.4933 292.096 100.48C288.27 103.467 283.65 104.96 278.236 104.96C273.57 104.96 269.976 103.887 267.456 101.74C264.936 99.4999 263.443 96.5599 262.976 92.9199C262.51 89.2799 262.883 85.2666 264.096 80.8799L284.536 9.75993C289.67 9.66659 294.243 9.47992 298.256 9.19993C302.27 8.91993 306.19 8.45326 310.016 7.79993L285.656 91.0999Z"/>
<path d="M338.329 95.4399C339.263 95.4399 340.243 95.0666 341.269 94.3199C342.296 93.5733 343.369 92.3133 344.489 90.5399C345.609 88.6733 346.823 86.1066 348.129 82.8399C349.436 79.5733 350.836 75.3733 352.329 70.2399L348.689 85.4999C347.196 90.4466 345.283 94.3666 342.949 97.2599C340.709 100.06 338.143 102.02 335.249 103.14C332.449 104.353 329.416 104.96 326.149 104.96C320.269 104.96 315.883 103.467 312.989 100.48C310.189 97.3999 308.789 93.0599 308.789 87.4599C308.789 82.0466 309.676 76.5399 311.449 70.9399C313.316 65.3399 315.789 60.0199 318.869 54.9799C322.043 49.8466 325.543 45.3199 329.369 41.3999C333.289 37.3866 337.349 34.2133 341.549 31.8799C345.749 29.5466 349.809 28.3799 353.729 28.3799C356.716 28.3799 359.003 29.3133 360.589 31.1799C362.269 33.0466 362.876 36.3599 362.409 41.1199L360.869 41.9599C361.336 39.6266 361.336 37.9466 360.869 36.9199C360.403 35.7999 359.609 35.2399 358.489 35.2399C356.903 35.2399 355.083 36.2666 353.029 38.3199C351.069 40.2799 349.016 43.0333 346.869 46.5799C344.816 50.0333 342.856 54.0466 340.989 58.6199C339.216 63.0999 337.769 67.8599 336.649 72.8999C335.623 77.9399 335.109 82.9799 335.109 88.0199C335.109 90.6333 335.343 92.5466 335.809 93.7599C336.276 94.8799 337.116 95.4399 338.329 95.4399ZM364.229 30.4799C369.363 30.3866 373.889 30.1999 377.809 29.9199C381.823 29.5466 385.743 29.0333 389.569 28.3799L370.669 91.0999C370.203 92.5933 369.969 93.8066 369.969 94.7399C370.063 95.5799 370.296 96.1866 370.669 96.5599C371.136 96.8399 371.696 96.9799 372.349 96.9799C373.189 96.9799 374.263 96.5133 375.569 95.5799C376.876 94.5533 378.276 92.0799 379.769 88.1599L382.709 80.3199H385.369L381.869 90.5399C380.563 94.4599 378.789 97.4466 376.549 99.4999C374.403 101.553 372.023 102.953 369.409 103.7C366.889 104.54 364.369 104.96 361.849 104.96C356.156 104.96 352.096 103.327 349.669 100.06C348.269 98.0999 347.476 95.5333 347.289 92.3599C347.196 89.1866 347.803 85.3599 349.109 80.8799L364.229 30.4799Z"/>
<path d="M444.734 31.1799C441.28 31.1799 437.92 32.6733 434.654 35.6599C431.387 38.5533 428.494 42.4733 425.974 47.4199C423.454 52.2733 421.447 57.7333 419.954 63.7999C418.46 69.7733 417.714 75.8399 417.714 81.9999C417.714 87.0399 418.74 90.6799 420.794 92.9199C422.847 95.1599 425.554 96.2799 428.914 96.2799C431.62 96.2799 434.374 95.4866 437.174 93.8999C439.974 92.3133 442.82 89.3733 445.714 85.0799L448.514 86.1999C446.554 89.2799 444.08 92.2666 441.094 95.1599C438.2 98.0533 434.7 100.433 430.594 102.3C426.58 104.073 421.867 104.96 416.454 104.96C409.36 104.96 403.434 103.187 398.674 99.6399C393.914 96.0933 391.534 90.4933 391.534 82.8399C391.534 77.9866 392.28 73.0399 393.774 67.9999C395.36 62.8666 397.6 57.9666 400.494 53.2999C403.48 48.5399 407.074 44.2933 411.274 40.5599C415.474 36.8266 420.234 33.8866 425.554 31.7399C430.874 29.4999 436.66 28.3799 442.914 28.3799C448.7 28.3799 453.18 29.8266 456.354 32.7199C459.527 35.6133 461.114 39.0199 461.114 42.9399C461.114 45.9266 460.367 48.8199 458.874 51.6199C457.38 54.4199 455.374 56.7533 452.854 58.6199C450.427 60.3933 447.72 61.2799 444.734 61.2799C442.307 61.2799 440.114 60.4399 438.154 58.7599C436.194 57.0799 435.214 54.6533 435.214 51.4799C435.214 46.9066 436.66 42.9399 439.554 39.5799C442.447 36.2199 445.76 33.9799 449.494 32.8599C448.84 32.2999 448.14 31.8799 447.394 31.5999C446.647 31.3199 445.76 31.1799 444.734 31.1799Z"/>
<path d="M517.866 30.3399L517.446 33.1399H465.506L466.206 30.3399H517.866ZM486.086 91.0999C485.526 93.0599 485.479 94.5533 485.946 95.5799C486.506 96.5133 487.393 96.9799 488.606 96.9799C490.473 96.9799 492.339 95.9533 494.206 93.8999C496.073 91.8466 497.566 89.3266 498.686 86.3399L500.926 80.3199H503.586L500.926 88.0199C499.153 93.3399 496.353 97.4933 492.526 100.48C488.699 103.467 484.079 104.96 478.666 104.96C473.999 104.96 470.406 103.887 467.886 101.74C465.366 99.4999 463.873 96.5599 463.406 92.9199C462.939 89.2799 463.313 85.2666 464.526 80.8799L484.966 9.75993C490.099 9.66659 494.673 9.47992 498.686 9.19993C502.699 8.91993 506.619 8.45326 510.446 7.79993L486.086 91.0999Z"/>
</mask>
<path d="M103.52 3.87993C102.12 7.51993 100.673 11.9533 99.1797 17.1799C97.6864 22.3133 96.1464 28.6133 94.5597 36.0799H91.4797C92.3197 31.4133 92.7397 27.2133 92.7397 23.4799C92.833 19.7466 92.0864 16.5266 90.4997 13.8199C88.7264 10.7399 86.5797 8.63993 84.0597 7.51992C81.5397 6.39993 78.553 5.83993 75.0997 5.83993C70.6197 5.83993 66.2797 7.0066 62.0797 9.33993C57.973 11.5799 54.193 14.7999 50.7397 18.9999C47.2864 23.1066 44.253 27.9133 41.6397 33.4199C39.0264 38.9266 36.973 44.9466 35.4797 51.4799C34.0797 58.0133 33.3797 64.7799 33.3797 71.7799C33.3797 81.4866 35.013 88.5799 38.2797 93.0599C41.6397 97.4466 46.1197 99.6399 51.7197 99.6399C54.7997 99.6399 57.973 98.9399 61.2397 97.5399C64.5997 96.1399 67.493 94.1333 69.9197 91.5199C72.4397 88.8133 74.5864 85.8266 76.3597 82.5599C78.2264 79.1999 80.2797 74.8133 82.5197 69.3999H85.5997C83.2664 77.8933 81.4464 84.7533 80.1397 89.9799C78.9264 95.1133 77.993 99.4533 77.3397 103H74.2597C74.5397 101.04 74.6797 99.4533 74.6797 98.2399C74.6797 96.3733 74.3064 95.2533 73.5597 94.8799C72.813 94.4133 71.6464 94.7399 70.0597 95.8599C67.633 97.5399 64.9264 99.0799 61.9397 100.48C59.0464 101.88 55.9197 102.953 52.5597 103.7C49.293 104.54 45.793 104.96 42.0597 104.96C27.7797 104.96 17.373 101.787 10.8397 95.4399C4.39969 89.0933 1.17969 80.3199 1.17969 69.1199C1.17969 62.3999 2.29969 55.8199 4.53969 49.3799C6.77969 42.8466 9.99969 36.7333 14.1997 31.0399C18.3997 25.3466 23.4397 20.3066 29.3197 15.9199C35.1997 11.5333 41.733 8.12659 48.9197 5.69992C56.1997 3.17992 63.9464 1.91992 72.1597 1.91992C75.893 1.91992 79.0197 2.33992 81.5397 3.17992C84.153 4.01992 86.3464 5.13992 88.1197 6.53993C89.9864 7.93993 91.573 9.43326 92.8797 11.0199C94.093 12.5133 95.3064 12.6533 96.5197 11.4399C97.8264 10.2266 99.1797 7.70659 100.58 3.87993H103.52Z" stroke="#DC965A" stroke-opacity="0.35" stroke-width="2" mask="url(#path-1-outside-1_3076_91652)"/>
<path d="M142.887 31.1799C141.3 31.1799 139.434 32.5333 137.287 35.2399C135.14 37.8533 132.947 41.3999 130.707 45.8799C128.467 50.3599 126.367 55.3533 124.407 60.8599C122.54 66.3666 121 72.0133 119.787 77.7999C118.667 83.5866 118.107 89.0933 118.107 94.3199C118.107 97.2133 118.294 99.2666 118.667 100.48C119.134 101.6 119.834 102.16 120.767 102.16C122.26 102.16 124.034 100.9 126.087 98.3799C128.234 95.8599 130.38 92.4533 132.527 88.1599C134.767 83.8666 136.82 79.0133 138.687 73.5999C140.647 68.1866 142.234 62.5399 143.447 56.6599C144.66 50.6866 145.267 44.8999 145.267 39.2999C145.267 35.7533 145.034 33.5133 144.567 32.5799C144.1 31.6466 143.54 31.1799 142.887 31.1799ZM94.867 81.1599C94.867 76.7733 95.4737 72.1533 96.687 67.2999C97.9004 62.4466 99.767 57.7333 102.287 53.1599C104.807 48.4933 107.98 44.2933 111.807 40.5599C115.727 36.8266 120.3 33.8866 125.527 31.7399C130.847 29.4999 136.867 28.3799 143.587 28.3799C151.707 28.3799 157.867 30.4333 162.067 34.5399C166.36 38.6466 168.507 44.5266 168.507 52.1799C168.507 56.5666 167.9 61.1866 166.687 66.0399C165.474 70.8933 163.607 75.6533 161.087 80.3199C158.567 84.8933 155.347 89.0466 151.427 92.7799C147.6 96.5133 143.027 99.4999 137.707 101.74C132.48 103.887 126.507 104.96 119.787 104.96C111.667 104.96 105.46 102.907 101.167 98.7999C96.967 94.6933 94.867 88.8133 94.867 81.1599Z" stroke="#DC965A" stroke-opacity="0.35" stroke-width="2" mask="url(#path-1-outside-1_3076_91652)"/>
<path d="M197.157 103H172.377L189.457 42.2399C189.923 40.7466 190.203 39.5799 190.297 38.7399C190.39 37.8999 190.25 37.2933 189.877 36.9199C189.597 36.5466 189.037 36.3599 188.197 36.3599C186.797 36.3599 185.49 37.0133 184.277 38.3199C183.063 39.5333 181.803 41.8199 180.497 45.1799L177.277 53.7199H174.617L178.537 42.7999C180.31 37.8533 182.737 34.2133 185.817 31.8799C188.897 29.5466 192.863 28.3799 197.717 28.3799C201.357 28.3799 204.25 28.9866 206.397 30.1999C208.543 31.3199 210.083 32.8599 211.017 34.8199C211.95 36.7799 212.417 38.9266 212.417 41.2599C212.417 43.4999 212.137 45.7399 211.577 47.9799L197.157 103ZM200.377 82.9799C204.203 71.5933 207.703 62.3533 210.877 55.2599C214.143 48.0733 217.27 42.5199 220.257 38.5999C223.337 34.6799 226.463 32.0199 229.637 30.6199C232.903 29.1266 236.403 28.3799 240.137 28.3799C244.803 28.3799 248.21 29.3133 250.357 31.1799C252.503 33.0466 253.623 35.6133 253.717 38.8799C253.903 42.0533 253.343 45.5999 252.037 49.5199L238.177 91.0999C237.243 93.7133 237.103 95.3466 237.757 95.9999C238.503 96.6533 239.203 96.9799 239.857 96.9799C240.697 96.9799 241.77 96.5133 243.077 95.5799C244.383 94.5533 245.783 92.0799 247.277 88.1599L250.217 80.3199H252.877L249.377 90.5399C248.07 94.4599 246.297 97.4466 244.057 99.4999C241.91 101.553 239.53 102.953 236.917 103.7C234.397 104.54 231.877 104.96 229.357 104.96C226.463 104.96 223.943 104.54 221.797 103.7C219.65 102.86 217.97 101.6 216.757 99.9199C215.357 97.9599 214.563 95.5333 214.377 92.6399C214.283 89.6533 215.03 85.7333 216.617 80.8799L228.657 44.6199C229.217 42.9399 229.543 41.5399 229.637 40.4199C229.823 39.2999 229.823 38.4599 229.637 37.8999C229.45 37.3399 229.03 37.0599 228.377 37.0599C226.883 37.0599 225.11 38.3199 223.057 40.8399C221.003 43.3599 218.81 46.8133 216.477 51.1999C214.237 55.5866 211.95 60.6266 209.617 66.3199C207.283 71.9199 205.043 77.8466 202.897 84.0999C200.75 90.2599 198.883 96.4199 197.297 102.58L200.377 82.9799Z" stroke="#DC965A" stroke-opacity="0.35" stroke-width="2" mask="url(#path-1-outside-1_3076_91652)"/>
<path d="M317.436 30.3399L317.016 33.1399H265.076L265.776 30.3399H317.436ZM285.656 91.0999C285.096 93.0599 285.05 94.5533 285.516 95.5799C286.076 96.5133 286.963 96.9799 288.176 96.9799C290.043 96.9799 291.91 95.9533 293.776 93.8999C295.643 91.8466 297.136 89.3266 298.256 86.3399L300.496 80.3199H303.156L300.496 88.0199C298.723 93.3399 295.923 97.4933 292.096 100.48C288.27 103.467 283.65 104.96 278.236 104.96C273.57 104.96 269.976 103.887 267.456 101.74C264.936 99.4999 263.443 96.5599 262.976 92.9199C262.51 89.2799 262.883 85.2666 264.096 80.8799L284.536 9.75993C289.67 9.66659 294.243 9.47992 298.256 9.19993C302.27 8.91993 306.19 8.45326 310.016 7.79993L285.656 91.0999Z" stroke="#DC965A" stroke-opacity="0.35" stroke-width="2" mask="url(#path-1-outside-1_3076_91652)"/>
<path d="M338.329 95.4399C339.263 95.4399 340.243 95.0666 341.269 94.3199C342.296 93.5733 343.369 92.3133 344.489 90.5399C345.609 88.6733 346.823 86.1066 348.129 82.8399C349.436 79.5733 350.836 75.3733 352.329 70.2399L348.689 85.4999C347.196 90.4466 345.283 94.3666 342.949 97.2599C340.709 100.06 338.143 102.02 335.249 103.14C332.449 104.353 329.416 104.96 326.149 104.96C320.269 104.96 315.883 103.467 312.989 100.48C310.189 97.3999 308.789 93.0599 308.789 87.4599C308.789 82.0466 309.676 76.5399 311.449 70.9399C313.316 65.3399 315.789 60.0199 318.869 54.9799C322.043 49.8466 325.543 45.3199 329.369 41.3999C333.289 37.3866 337.349 34.2133 341.549 31.8799C345.749 29.5466 349.809 28.3799 353.729 28.3799C356.716 28.3799 359.003 29.3133 360.589 31.1799C362.269 33.0466 362.876 36.3599 362.409 41.1199L360.869 41.9599C361.336 39.6266 361.336 37.9466 360.869 36.9199C360.403 35.7999 359.609 35.2399 358.489 35.2399C356.903 35.2399 355.083 36.2666 353.029 38.3199C351.069 40.2799 349.016 43.0333 346.869 46.5799C344.816 50.0333 342.856 54.0466 340.989 58.6199C339.216 63.0999 337.769 67.8599 336.649 72.8999C335.623 77.9399 335.109 82.9799 335.109 88.0199C335.109 90.6333 335.343 92.5466 335.809 93.7599C336.276 94.8799 337.116 95.4399 338.329 95.4399ZM364.229 30.4799C369.363 30.3866 373.889 30.1999 377.809 29.9199C381.823 29.5466 385.743 29.0333 389.569 28.3799L370.669 91.0999C370.203 92.5933 369.969 93.8066 369.969 94.7399C370.063 95.5799 370.296 96.1866 370.669 96.5599C371.136 96.8399 371.696 96.9799 372.349 96.9799C373.189 96.9799 374.263 96.5133 375.569 95.5799C376.876 94.5533 378.276 92.0799 379.769 88.1599L382.709 80.3199H385.369L381.869 90.5399C380.563 94.4599 378.789 97.4466 376.549 99.4999C374.403 101.553 372.023 102.953 369.409 103.7C366.889 104.54 364.369 104.96 361.849 104.96C356.156 104.96 352.096 103.327 349.669 100.06C348.269 98.0999 347.476 95.5333 347.289 92.3599C347.196 89.1866 347.803 85.3599 349.109 80.8799L364.229 30.4799Z" stroke="#DC965A" stroke-opacity="0.35" stroke-width="2" mask="url(#path-1-outside-1_3076_91652)"/>
<path d="M444.734 31.1799C441.28 31.1799 437.92 32.6733 434.654 35.6599C431.387 38.5533 428.494 42.4733 425.974 47.4199C423.454 52.2733 421.447 57.7333 419.954 63.7999C418.46 69.7733 417.714 75.8399 417.714 81.9999C417.714 87.0399 418.74 90.6799 420.794 92.9199C422.847 95.1599 425.554 96.2799 428.914 96.2799C431.62 96.2799 434.374 95.4866 437.174 93.8999C439.974 92.3133 442.82 89.3733 445.714 85.0799L448.514 86.1999C446.554 89.2799 444.08 92.2666 441.094 95.1599C438.2 98.0533 434.7 100.433 430.594 102.3C426.58 104.073 421.867 104.96 416.454 104.96C409.36 104.96 403.434 103.187 398.674 99.6399C393.914 96.0933 391.534 90.4933 391.534 82.8399C391.534 77.9866 392.28 73.0399 393.774 67.9999C395.36 62.8666 397.6 57.9666 400.494 53.2999C403.48 48.5399 407.074 44.2933 411.274 40.5599C415.474 36.8266 420.234 33.8866 425.554 31.7399C430.874 29.4999 436.66 28.3799 442.914 28.3799C448.7 28.3799 453.18 29.8266 456.354 32.7199C459.527 35.6133 461.114 39.0199 461.114 42.9399C461.114 45.9266 460.367 48.8199 458.874 51.6199C457.38 54.4199 455.374 56.7533 452.854 58.6199C450.427 60.3933 447.72 61.2799 444.734 61.2799C442.307 61.2799 440.114 60.4399 438.154 58.7599C436.194 57.0799 435.214 54.6533 435.214 51.4799C435.214 46.9066 436.66 42.9399 439.554 39.5799C442.447 36.2199 445.76 33.9799 449.494 32.8599C448.84 32.2999 448.14 31.8799 447.394 31.5999C446.647 31.3199 445.76 31.1799 444.734 31.1799Z" stroke="#DC965A" stroke-opacity="0.35" stroke-width="2" mask="url(#path-1-outside-1_3076_91652)"/>
<path d="M517.866 30.3399L517.446 33.1399H465.506L466.206 30.3399H517.866ZM486.086 91.0999C485.526 93.0599 485.479 94.5533 485.946 95.5799C486.506 96.5133 487.393 96.9799 488.606 96.9799C490.473 96.9799 492.339 95.9533 494.206 93.8999C496.073 91.8466 497.566 89.3266 498.686 86.3399L500.926 80.3199H503.586L500.926 88.0199C499.153 93.3399 496.353 97.4933 492.526 100.48C488.699 103.467 484.079 104.96 478.666 104.96C473.999 104.96 470.406 103.887 467.886 101.74C465.366 99.4999 463.873 96.5599 463.406 92.9199C462.939 89.2799 463.313 85.2666 464.526 80.8799L484.966 9.75993C490.099 9.66659 494.673 9.47992 498.686 9.19993C502.699 8.91993 506.619 8.45326 510.446 7.79993L486.086 91.0999Z" stroke="#DC965A" stroke-opacity="0.35" stroke-width="2" mask="url(#path-1-outside-1_3076_91652)"/>
</svg>
