<svg width="591" height="141" viewBox="0 0 591 141" fill="none" xmlns="http://www.w3.org/2000/svg">
<mask id="path-1-outside-1_3076_91651" maskUnits="userSpaceOnUse" x="-0.720703" y="-0.299805" width="592" height="141" fill="black">
<rect fill="white" x="-0.720703" y="-0.299805" width="592" height="141"/>
<path d="M42.7193 73.2402L43.4193 70.4402H49.7193C55.4126 70.4402 60.1726 69.1802 63.9993 66.6602C67.9193 64.1402 71.046 60.9202 73.3793 57.0002C75.7126 52.9869 77.3926 48.7402 78.4193 44.2602C79.446 39.6869 79.9593 35.3935 79.9593 31.3802C79.9593 26.7135 79.1193 23.1202 77.4393 20.6002C75.7593 17.9869 73.006 16.6802 69.1793 16.6802C67.8726 16.6802 66.8926 17.0069 66.2393 17.6602C65.6793 18.3135 65.2126 19.5269 64.8393 21.3002C64.466 22.9802 63.8593 25.4535 63.0193 28.7202L44.5393 98.1602C43.886 100.774 43.606 102.967 43.6993 104.74C43.7926 106.42 44.5393 107.727 45.9393 108.66C47.4326 109.5 49.7193 110.014 52.7993 110.2L52.2393 113C49.066 112.814 45.3793 112.72 41.1793 112.72C36.9793 112.627 32.546 112.58 27.8793 112.58C22.5593 112.58 17.4726 112.627 12.6193 112.72C7.8593 112.72 4.0793 112.814 1.2793 113L1.8393 110.2C5.01263 110.014 7.48596 109.64 9.2593 109.08C11.0326 108.52 12.4326 107.4 13.4593 105.72C14.486 104.04 15.4193 101.52 16.2593 98.1602L34.7393 28.7202C35.2993 25.9202 35.5793 23.6802 35.5793 22.0002C35.6726 20.3202 35.066 19.0602 33.7593 18.2202C32.4526 17.3802 30.026 16.8669 26.4793 16.6802L27.1793 13.8802C29.886 13.9735 33.6193 14.0669 38.3793 14.1602C43.2326 14.2535 48.0393 14.3002 52.7993 14.3002C56.1593 14.3002 59.5193 14.2535 62.8793 14.1602C66.3326 14.0669 69.786 14.0202 73.2393 14.0202C85.5593 14.0202 94.6593 15.7469 100.539 19.2002C106.513 22.6535 109.499 27.9735 109.499 35.1602C109.499 42.4402 106.933 48.9735 101.799 54.7602C96.666 60.4535 89.4793 64.9802 80.2393 68.3402C71.0926 71.6069 60.4526 73.2402 48.3193 73.2402H42.7193Z"/>
<path d="M146.273 41.1802C144.687 41.1802 142.82 42.5335 140.673 45.2402C138.527 47.8535 136.333 51.4002 134.093 55.8802C131.853 60.3602 129.753 65.3535 127.793 70.8602C125.927 76.3669 124.387 82.0135 123.173 87.8002C122.053 93.5869 121.493 99.0935 121.493 104.32C121.493 107.214 121.68 109.267 122.053 110.48C122.52 111.6 123.22 112.16 124.153 112.16C125.647 112.16 127.42 110.9 129.473 108.38C131.62 105.86 133.767 102.454 135.913 98.1602C138.153 93.8669 140.207 89.0135 142.073 83.6002C144.033 78.1869 145.62 72.5402 146.833 66.6602C148.047 60.6869 148.653 54.9002 148.653 49.3002C148.653 45.7535 148.42 43.5135 147.953 42.5802C147.487 41.6469 146.927 41.1802 146.273 41.1802ZM98.2534 91.1602C98.2534 86.7735 98.86 82.1535 100.073 77.3002C101.287 72.4469 103.153 67.7335 105.673 63.1602C108.193 58.4935 111.367 54.2935 115.193 50.5602C119.113 46.8269 123.687 43.8869 128.913 41.7402C134.233 39.5002 140.253 38.3802 146.973 38.3802C155.093 38.3802 161.253 40.4335 165.453 44.5402C169.747 48.6469 171.893 54.5269 171.893 62.1802C171.893 66.5669 171.287 71.1869 170.073 76.0402C168.86 80.8935 166.993 85.6535 164.473 90.3202C161.953 94.8935 158.733 99.0469 154.813 102.78C150.987 106.514 146.413 109.5 141.093 111.74C135.867 113.887 129.893 114.96 123.173 114.96C115.053 114.96 108.847 112.907 104.553 108.8C100.353 104.694 98.2534 98.8135 98.2534 91.1602Z"/>
<path d="M200.543 113H175.763L192.843 52.2402C193.403 50.0935 193.59 48.6002 193.403 47.7602C193.216 46.8269 192.61 46.3602 191.583 46.3602C190.183 46.3602 188.876 47.0135 187.663 48.3202C186.45 49.5335 185.19 51.8202 183.883 55.1802L180.663 63.7202H178.003L181.923 52.8002C183.23 49.2535 184.863 46.4535 186.823 44.4002C188.876 42.2535 191.256 40.7135 193.963 39.7802C196.67 38.8469 199.61 38.3802 202.783 38.3802C205.956 38.3802 208.476 38.9869 210.343 40.2002C212.21 41.3202 213.563 42.8602 214.403 44.8202C215.243 46.7802 215.663 48.9269 215.663 51.2602C215.756 53.5002 215.523 55.7402 214.963 57.9802L200.543 113ZM236.243 41.1802C234.47 41.1802 232.556 41.4602 230.503 42.0202C228.543 42.5802 226.443 44.0269 224.203 46.3602C222.056 48.6002 219.723 52.2402 217.203 57.2802C214.776 62.3202 212.163 69.3202 209.363 78.2802C206.563 87.2402 203.623 98.6735 200.543 112.58L203.483 92.9802C206.283 82.0602 208.85 73.1002 211.183 66.1002C213.516 59.0069 215.85 53.4535 218.183 49.4402C220.516 45.3335 223.083 42.4869 225.883 40.9002C228.683 39.2202 231.95 38.3802 235.683 38.3802C240.07 38.3802 243.43 39.6869 245.763 42.3002C248.096 44.9135 249.263 48.1335 249.263 51.9602C249.263 55.0402 248.563 57.9335 247.163 60.6402C245.856 63.2535 243.99 65.4002 241.563 67.0802C239.23 68.6669 236.523 69.4602 233.443 69.4602C229.99 69.4602 227.376 68.5735 225.603 66.8002C223.83 65.0269 222.943 62.4135 222.943 58.9602C222.943 56.1602 223.643 53.5469 225.043 51.1202C226.443 48.6935 228.31 46.6402 230.643 44.9602C232.976 43.1869 235.496 42.0669 238.203 41.6002C237.923 41.5069 237.596 41.4135 237.223 41.3202C236.943 41.2269 236.616 41.1802 236.243 41.1802Z"/>
<path d="M304.006 40.3402L303.586 43.1402H251.646L252.346 40.3402H304.006ZM272.226 101.1C271.666 103.06 271.62 104.554 272.086 105.58C272.646 106.514 273.533 106.98 274.746 106.98C276.613 106.98 278.48 105.954 280.346 103.9C282.213 101.847 283.706 99.3269 284.826 96.3402L287.066 90.3202H289.726L287.066 98.0202C285.293 103.34 282.493 107.494 278.666 110.48C274.84 113.467 270.22 114.96 264.806 114.96C260.14 114.96 256.546 113.887 254.026 111.74C251.506 109.5 250.013 106.56 249.546 102.92C249.08 99.2802 249.453 95.2669 250.666 90.8802L271.106 19.7602C276.24 19.6669 280.813 19.4802 284.826 19.2002C288.84 18.9202 292.76 18.4535 296.586 17.8002L272.226 101.1Z"/>
<path d="M302.919 43.1402L303.759 40.3402H353.459L352.619 43.1402H302.919ZM357.939 6.32019C356.632 6.32019 355.419 6.50686 354.299 6.8802C353.179 7.16019 352.106 7.72019 351.079 8.56019C350.239 9.30686 349.399 10.2869 348.559 11.5002C347.812 12.7135 347.066 14.2069 346.319 15.9802C345.666 17.7535 345.012 19.9002 344.359 22.4202L313.559 137.36C308.519 137.454 303.992 137.64 299.979 137.92C296.059 138.2 292.139 138.667 288.219 139.32L314.259 42.4402C316.406 34.2269 318.926 27.4602 321.819 22.1402C324.806 16.7269 328.306 12.5735 332.319 9.68019C335.306 7.53353 338.526 5.99353 341.979 5.0602C345.526 4.03353 349.352 3.52019 353.459 3.52019C360.366 3.52019 365.732 4.92019 369.559 7.72019C373.479 10.5202 375.439 14.3469 375.439 19.2002C375.439 21.3469 374.786 23.5402 373.479 25.7802C372.266 27.9269 370.539 29.7002 368.299 31.1002C366.059 32.5002 363.399 33.2002 360.319 33.2002C356.866 33.2002 354.112 32.4069 352.059 30.8202C350.099 29.1402 349.119 26.7602 349.119 23.6802C349.119 20.1335 350.192 16.8669 352.339 13.8802C354.579 10.8935 357.659 8.65353 361.579 7.16019C360.926 6.88019 360.319 6.69353 359.759 6.60019C359.199 6.41353 358.592 6.32019 357.939 6.32019Z"/>
<path d="M394.965 41.1802C393.378 41.1802 391.511 42.5335 389.365 45.2402C387.218 47.8535 385.025 51.4002 382.785 55.8802C380.545 60.3602 378.445 65.3535 376.485 70.8602C374.618 76.3669 373.078 82.0135 371.865 87.8002C370.745 93.5869 370.185 99.0935 370.185 104.32C370.185 107.214 370.371 109.267 370.745 110.48C371.211 111.6 371.911 112.16 372.845 112.16C374.338 112.16 376.111 110.9 378.165 108.38C380.311 105.86 382.458 102.454 384.605 98.1602C386.845 93.8669 388.898 89.0135 390.765 83.6002C392.725 78.1869 394.311 72.5402 395.525 66.6602C396.738 60.6869 397.345 54.9002 397.345 49.3002C397.345 45.7535 397.111 43.5135 396.645 42.5802C396.178 41.6469 395.618 41.1802 394.965 41.1802ZM346.945 91.1602C346.945 86.7735 347.551 82.1535 348.765 77.3002C349.978 72.4469 351.845 67.7335 354.365 63.1602C356.885 58.4935 360.058 54.2935 363.885 50.5602C367.805 46.8269 372.378 43.8869 377.605 41.7402C382.925 39.5002 388.945 38.3802 395.665 38.3802C403.785 38.3802 409.945 40.4335 414.145 44.5402C418.438 48.6469 420.585 54.5269 420.585 62.1802C420.585 66.5669 419.978 71.1869 418.765 76.0402C417.551 80.8935 415.685 85.6535 413.165 90.3202C410.645 94.8935 407.425 99.0469 403.505 102.78C399.678 106.514 395.105 109.5 389.785 111.74C384.558 113.887 378.585 114.96 371.865 114.96C363.745 114.96 357.538 112.907 353.245 108.8C349.045 104.694 346.945 98.8135 346.945 91.1602Z"/>
<path d="M447.694 101.1C447.041 103.34 447.041 104.88 447.694 105.72C448.348 106.56 449.094 106.98 449.934 106.98C450.401 106.98 451.334 106.56 452.734 105.72C454.134 104.787 455.581 102.267 457.074 98.1602L460.014 90.3202H462.674L459.174 100.54C457.774 104.554 455.908 107.587 453.574 109.64C451.334 111.694 448.954 113.094 446.434 113.84C443.914 114.587 441.534 114.96 439.294 114.96C436.308 114.96 433.694 114.447 431.454 113.42C429.308 112.394 427.628 110.9 426.414 108.94C425.201 106.887 424.548 104.367 424.454 101.38C424.361 98.3935 424.921 94.8935 426.134 90.8802L447.554 19.6202C448.488 16.4469 448.394 14.1135 447.274 12.6202C446.154 11.1269 443.308 10.3802 438.734 10.3802L439.714 7.4402C447.368 7.34686 454.134 6.83352 460.014 5.90019C465.988 4.87353 471.728 3.47353 477.234 1.7002L447.694 101.1Z"/>
<path d="M491.991 18.3602C491.991 13.3202 493.625 9.58686 496.891 7.16019C500.158 4.73353 504.218 3.52019 509.071 3.52019C513.178 3.52019 516.258 4.31352 518.311 5.90019C520.458 7.48686 521.531 9.86686 521.531 13.0402C521.531 17.4269 519.851 20.9735 516.491 23.6802C513.225 26.2935 509.165 27.6002 504.311 27.6002C500.298 27.6002 497.218 26.8069 495.071 25.2202C493.018 23.6335 491.991 21.3469 491.991 18.3602ZM486.111 52.2402C487.418 48.3202 486.998 46.3602 484.851 46.3602C483.451 46.3602 482.145 47.0135 480.931 48.3202C479.718 49.5335 478.458 51.8202 477.151 55.1802L473.931 63.7202H471.271L475.191 52.8002C476.498 49.2535 478.131 46.4535 480.091 44.4002C482.145 42.2535 484.525 40.7135 487.231 39.7802C489.938 38.8469 492.878 38.3802 496.051 38.3802C499.598 38.3802 502.445 38.9869 504.591 40.2002C506.738 41.4135 508.278 43.0002 509.211 44.9602C510.145 46.8269 510.611 48.9269 510.611 51.2602C510.611 53.5002 510.238 55.7402 509.491 57.9802L494.931 101.1C494.185 103.434 494.045 105.02 494.511 105.86C494.978 106.607 495.678 106.98 496.611 106.98C497.451 106.98 498.525 106.514 499.831 105.58C501.138 104.554 502.538 102.08 504.031 98.1602L506.971 90.3202H509.631L506.131 100.54C504.731 104.46 502.958 107.447 500.811 109.5C498.665 111.554 496.285 112.954 493.671 113.7C491.151 114.54 488.631 114.96 486.111 114.96C482.005 114.96 478.645 114.12 476.031 112.44C473.511 110.667 471.971 108.007 471.411 104.46C470.851 100.82 471.458 96.2935 473.231 90.8802L486.111 52.2402Z"/>
<path d="M564.223 41.1802C562.636 41.1802 560.769 42.5335 558.623 45.2402C556.476 47.8535 554.283 51.4002 552.043 55.8802C549.803 60.3602 547.703 65.3535 545.743 70.8602C543.876 76.3669 542.336 82.0135 541.123 87.8002C540.003 93.5869 539.443 99.0935 539.443 104.32C539.443 107.214 539.629 109.267 540.003 110.48C540.469 111.6 541.169 112.16 542.103 112.16C543.596 112.16 545.369 110.9 547.423 108.38C549.569 105.86 551.716 102.454 553.863 98.1602C556.103 93.8669 558.156 89.0135 560.023 83.6002C561.983 78.1869 563.569 72.5402 564.783 66.6602C565.996 60.6869 566.603 54.9002 566.603 49.3002C566.603 45.7535 566.369 43.5135 565.903 42.5802C565.436 41.6469 564.876 41.1802 564.223 41.1802ZM516.203 91.1602C516.203 86.7735 516.809 82.1535 518.023 77.3002C519.236 72.4469 521.103 67.7335 523.623 63.1602C526.143 58.4935 529.316 54.2935 533.143 50.5602C537.063 46.8269 541.636 43.8869 546.863 41.7402C552.183 39.5002 558.203 38.3802 564.923 38.3802C573.043 38.3802 579.203 40.4335 583.403 44.5402C587.696 48.6469 589.843 54.5269 589.843 62.1802C589.843 66.5669 589.236 71.1869 588.023 76.0402C586.809 80.8935 584.943 85.6535 582.423 90.3202C579.903 94.8935 576.683 99.0469 572.763 102.78C568.936 106.514 564.363 109.5 559.043 111.74C553.816 113.887 547.843 114.96 541.123 114.96C533.003 114.96 526.796 112.907 522.503 108.8C518.303 104.694 516.203 98.8135 516.203 91.1602Z"/>
</mask>
<path d="M42.7193 73.2402L43.4193 70.4402H49.7193C55.4126 70.4402 60.1726 69.1802 63.9993 66.6602C67.9193 64.1402 71.046 60.9202 73.3793 57.0002C75.7126 52.9869 77.3926 48.7402 78.4193 44.2602C79.446 39.6869 79.9593 35.3935 79.9593 31.3802C79.9593 26.7135 79.1193 23.1202 77.4393 20.6002C75.7593 17.9869 73.006 16.6802 69.1793 16.6802C67.8726 16.6802 66.8926 17.0069 66.2393 17.6602C65.6793 18.3135 65.2126 19.5269 64.8393 21.3002C64.466 22.9802 63.8593 25.4535 63.0193 28.7202L44.5393 98.1602C43.886 100.774 43.606 102.967 43.6993 104.74C43.7926 106.42 44.5393 107.727 45.9393 108.66C47.4326 109.5 49.7193 110.014 52.7993 110.2L52.2393 113C49.066 112.814 45.3793 112.72 41.1793 112.72C36.9793 112.627 32.546 112.58 27.8793 112.58C22.5593 112.58 17.4726 112.627 12.6193 112.72C7.8593 112.72 4.0793 112.814 1.2793 113L1.8393 110.2C5.01263 110.014 7.48596 109.64 9.2593 109.08C11.0326 108.52 12.4326 107.4 13.4593 105.72C14.486 104.04 15.4193 101.52 16.2593 98.1602L34.7393 28.7202C35.2993 25.9202 35.5793 23.6802 35.5793 22.0002C35.6726 20.3202 35.066 19.0602 33.7593 18.2202C32.4526 17.3802 30.026 16.8669 26.4793 16.6802L27.1793 13.8802C29.886 13.9735 33.6193 14.0669 38.3793 14.1602C43.2326 14.2535 48.0393 14.3002 52.7993 14.3002C56.1593 14.3002 59.5193 14.2535 62.8793 14.1602C66.3326 14.0669 69.786 14.0202 73.2393 14.0202C85.5593 14.0202 94.6593 15.7469 100.539 19.2002C106.513 22.6535 109.499 27.9735 109.499 35.1602C109.499 42.4402 106.933 48.9735 101.799 54.7602C96.666 60.4535 89.4793 64.9802 80.2393 68.3402C71.0926 71.6069 60.4526 73.2402 48.3193 73.2402H42.7193Z" stroke="#DC965A" stroke-opacity="0.35" stroke-width="2" mask="url(#path-1-outside-1_3076_91651)"/>
<path d="M146.273 41.1802C144.687 41.1802 142.82 42.5335 140.673 45.2402C138.527 47.8535 136.333 51.4002 134.093 55.8802C131.853 60.3602 129.753 65.3535 127.793 70.8602C125.927 76.3669 124.387 82.0135 123.173 87.8002C122.053 93.5869 121.493 99.0935 121.493 104.32C121.493 107.214 121.68 109.267 122.053 110.48C122.52 111.6 123.22 112.16 124.153 112.16C125.647 112.16 127.42 110.9 129.473 108.38C131.62 105.86 133.767 102.454 135.913 98.1602C138.153 93.8669 140.207 89.0135 142.073 83.6002C144.033 78.1869 145.62 72.5402 146.833 66.6602C148.047 60.6869 148.653 54.9002 148.653 49.3002C148.653 45.7535 148.42 43.5135 147.953 42.5802C147.487 41.6469 146.927 41.1802 146.273 41.1802ZM98.2534 91.1602C98.2534 86.7735 98.86 82.1535 100.073 77.3002C101.287 72.4469 103.153 67.7335 105.673 63.1602C108.193 58.4935 111.367 54.2935 115.193 50.5602C119.113 46.8269 123.687 43.8869 128.913 41.7402C134.233 39.5002 140.253 38.3802 146.973 38.3802C155.093 38.3802 161.253 40.4335 165.453 44.5402C169.747 48.6469 171.893 54.5269 171.893 62.1802C171.893 66.5669 171.287 71.1869 170.073 76.0402C168.86 80.8935 166.993 85.6535 164.473 90.3202C161.953 94.8935 158.733 99.0469 154.813 102.78C150.987 106.514 146.413 109.5 141.093 111.74C135.867 113.887 129.893 114.96 123.173 114.96C115.053 114.96 108.847 112.907 104.553 108.8C100.353 104.694 98.2534 98.8135 98.2534 91.1602Z" stroke="#DC965A" stroke-opacity="0.35" stroke-width="2" mask="url(#path-1-outside-1_3076_91651)"/>
<path d="M200.543 113H175.763L192.843 52.2402C193.403 50.0935 193.59 48.6002 193.403 47.7602C193.216 46.8269 192.61 46.3602 191.583 46.3602C190.183 46.3602 188.876 47.0135 187.663 48.3202C186.45 49.5335 185.19 51.8202 183.883 55.1802L180.663 63.7202H178.003L181.923 52.8002C183.23 49.2535 184.863 46.4535 186.823 44.4002C188.876 42.2535 191.256 40.7135 193.963 39.7802C196.67 38.8469 199.61 38.3802 202.783 38.3802C205.956 38.3802 208.476 38.9869 210.343 40.2002C212.21 41.3202 213.563 42.8602 214.403 44.8202C215.243 46.7802 215.663 48.9269 215.663 51.2602C215.756 53.5002 215.523 55.7402 214.963 57.9802L200.543 113ZM236.243 41.1802C234.47 41.1802 232.556 41.4602 230.503 42.0202C228.543 42.5802 226.443 44.0269 224.203 46.3602C222.056 48.6002 219.723 52.2402 217.203 57.2802C214.776 62.3202 212.163 69.3202 209.363 78.2802C206.563 87.2402 203.623 98.6735 200.543 112.58L203.483 92.9802C206.283 82.0602 208.85 73.1002 211.183 66.1002C213.516 59.0069 215.85 53.4535 218.183 49.4402C220.516 45.3335 223.083 42.4869 225.883 40.9002C228.683 39.2202 231.95 38.3802 235.683 38.3802C240.07 38.3802 243.43 39.6869 245.763 42.3002C248.096 44.9135 249.263 48.1335 249.263 51.9602C249.263 55.0402 248.563 57.9335 247.163 60.6402C245.856 63.2535 243.99 65.4002 241.563 67.0802C239.23 68.6669 236.523 69.4602 233.443 69.4602C229.99 69.4602 227.376 68.5735 225.603 66.8002C223.83 65.0269 222.943 62.4135 222.943 58.9602C222.943 56.1602 223.643 53.5469 225.043 51.1202C226.443 48.6935 228.31 46.6402 230.643 44.9602C232.976 43.1869 235.496 42.0669 238.203 41.6002C237.923 41.5069 237.596 41.4135 237.223 41.3202C236.943 41.2269 236.616 41.1802 236.243 41.1802Z" stroke="#DC965A" stroke-opacity="0.35" stroke-width="2" mask="url(#path-1-outside-1_3076_91651)"/>
<path d="M304.006 40.3402L303.586 43.1402H251.646L252.346 40.3402H304.006ZM272.226 101.1C271.666 103.06 271.62 104.554 272.086 105.58C272.646 106.514 273.533 106.98 274.746 106.98C276.613 106.98 278.48 105.954 280.346 103.9C282.213 101.847 283.706 99.3269 284.826 96.3402L287.066 90.3202H289.726L287.066 98.0202C285.293 103.34 282.493 107.494 278.666 110.48C274.84 113.467 270.22 114.96 264.806 114.96C260.14 114.96 256.546 113.887 254.026 111.74C251.506 109.5 250.013 106.56 249.546 102.92C249.08 99.2802 249.453 95.2669 250.666 90.8802L271.106 19.7602C276.24 19.6669 280.813 19.4802 284.826 19.2002C288.84 18.9202 292.76 18.4535 296.586 17.8002L272.226 101.1Z" stroke="#DC965A" stroke-opacity="0.35" stroke-width="2" mask="url(#path-1-outside-1_3076_91651)"/>
<path d="M302.919 43.1402L303.759 40.3402H353.459L352.619 43.1402H302.919ZM357.939 6.32019C356.632 6.32019 355.419 6.50686 354.299 6.8802C353.179 7.16019 352.106 7.72019 351.079 8.56019C350.239 9.30686 349.399 10.2869 348.559 11.5002C347.812 12.7135 347.066 14.2069 346.319 15.9802C345.666 17.7535 345.012 19.9002 344.359 22.4202L313.559 137.36C308.519 137.454 303.992 137.64 299.979 137.92C296.059 138.2 292.139 138.667 288.219 139.32L314.259 42.4402C316.406 34.2269 318.926 27.4602 321.819 22.1402C324.806 16.7269 328.306 12.5735 332.319 9.68019C335.306 7.53353 338.526 5.99353 341.979 5.0602C345.526 4.03353 349.352 3.52019 353.459 3.52019C360.366 3.52019 365.732 4.92019 369.559 7.72019C373.479 10.5202 375.439 14.3469 375.439 19.2002C375.439 21.3469 374.786 23.5402 373.479 25.7802C372.266 27.9269 370.539 29.7002 368.299 31.1002C366.059 32.5002 363.399 33.2002 360.319 33.2002C356.866 33.2002 354.112 32.4069 352.059 30.8202C350.099 29.1402 349.119 26.7602 349.119 23.6802C349.119 20.1335 350.192 16.8669 352.339 13.8802C354.579 10.8935 357.659 8.65353 361.579 7.16019C360.926 6.88019 360.319 6.69353 359.759 6.60019C359.199 6.41353 358.592 6.32019 357.939 6.32019Z" stroke="#DC965A" stroke-opacity="0.35" stroke-width="2" mask="url(#path-1-outside-1_3076_91651)"/>
<path d="M394.965 41.1802C393.378 41.1802 391.511 42.5335 389.365 45.2402C387.218 47.8535 385.025 51.4002 382.785 55.8802C380.545 60.3602 378.445 65.3535 376.485 70.8602C374.618 76.3669 373.078 82.0135 371.865 87.8002C370.745 93.5869 370.185 99.0935 370.185 104.32C370.185 107.214 370.371 109.267 370.745 110.48C371.211 111.6 371.911 112.16 372.845 112.16C374.338 112.16 376.111 110.9 378.165 108.38C380.311 105.86 382.458 102.454 384.605 98.1602C386.845 93.8669 388.898 89.0135 390.765 83.6002C392.725 78.1869 394.311 72.5402 395.525 66.6602C396.738 60.6869 397.345 54.9002 397.345 49.3002C397.345 45.7535 397.111 43.5135 396.645 42.5802C396.178 41.6469 395.618 41.1802 394.965 41.1802ZM346.945 91.1602C346.945 86.7735 347.551 82.1535 348.765 77.3002C349.978 72.4469 351.845 67.7335 354.365 63.1602C356.885 58.4935 360.058 54.2935 363.885 50.5602C367.805 46.8269 372.378 43.8869 377.605 41.7402C382.925 39.5002 388.945 38.3802 395.665 38.3802C403.785 38.3802 409.945 40.4335 414.145 44.5402C418.438 48.6469 420.585 54.5269 420.585 62.1802C420.585 66.5669 419.978 71.1869 418.765 76.0402C417.551 80.8935 415.685 85.6535 413.165 90.3202C410.645 94.8935 407.425 99.0469 403.505 102.78C399.678 106.514 395.105 109.5 389.785 111.74C384.558 113.887 378.585 114.96 371.865 114.96C363.745 114.96 357.538 112.907 353.245 108.8C349.045 104.694 346.945 98.8135 346.945 91.1602Z" stroke="#DC965A" stroke-opacity="0.35" stroke-width="2" mask="url(#path-1-outside-1_3076_91651)"/>
<path d="M447.694 101.1C447.041 103.34 447.041 104.88 447.694 105.72C448.348 106.56 449.094 106.98 449.934 106.98C450.401 106.98 451.334 106.56 452.734 105.72C454.134 104.787 455.581 102.267 457.074 98.1602L460.014 90.3202H462.674L459.174 100.54C457.774 104.554 455.908 107.587 453.574 109.64C451.334 111.694 448.954 113.094 446.434 113.84C443.914 114.587 441.534 114.96 439.294 114.96C436.308 114.96 433.694 114.447 431.454 113.42C429.308 112.394 427.628 110.9 426.414 108.94C425.201 106.887 424.548 104.367 424.454 101.38C424.361 98.3935 424.921 94.8935 426.134 90.8802L447.554 19.6202C448.488 16.4469 448.394 14.1135 447.274 12.6202C446.154 11.1269 443.308 10.3802 438.734 10.3802L439.714 7.4402C447.368 7.34686 454.134 6.83352 460.014 5.90019C465.988 4.87353 471.728 3.47353 477.234 1.7002L447.694 101.1Z" stroke="#DC965A" stroke-opacity="0.35" stroke-width="2" mask="url(#path-1-outside-1_3076_91651)"/>
<path d="M491.991 18.3602C491.991 13.3202 493.625 9.58686 496.891 7.16019C500.158 4.73353 504.218 3.52019 509.071 3.52019C513.178 3.52019 516.258 4.31352 518.311 5.90019C520.458 7.48686 521.531 9.86686 521.531 13.0402C521.531 17.4269 519.851 20.9735 516.491 23.6802C513.225 26.2935 509.165 27.6002 504.311 27.6002C500.298 27.6002 497.218 26.8069 495.071 25.2202C493.018 23.6335 491.991 21.3469 491.991 18.3602ZM486.111 52.2402C487.418 48.3202 486.998 46.3602 484.851 46.3602C483.451 46.3602 482.145 47.0135 480.931 48.3202C479.718 49.5335 478.458 51.8202 477.151 55.1802L473.931 63.7202H471.271L475.191 52.8002C476.498 49.2535 478.131 46.4535 480.091 44.4002C482.145 42.2535 484.525 40.7135 487.231 39.7802C489.938 38.8469 492.878 38.3802 496.051 38.3802C499.598 38.3802 502.445 38.9869 504.591 40.2002C506.738 41.4135 508.278 43.0002 509.211 44.9602C510.145 46.8269 510.611 48.9269 510.611 51.2602C510.611 53.5002 510.238 55.7402 509.491 57.9802L494.931 101.1C494.185 103.434 494.045 105.02 494.511 105.86C494.978 106.607 495.678 106.98 496.611 106.98C497.451 106.98 498.525 106.514 499.831 105.58C501.138 104.554 502.538 102.08 504.031 98.1602L506.971 90.3202H509.631L506.131 100.54C504.731 104.46 502.958 107.447 500.811 109.5C498.665 111.554 496.285 112.954 493.671 113.7C491.151 114.54 488.631 114.96 486.111 114.96C482.005 114.96 478.645 114.12 476.031 112.44C473.511 110.667 471.971 108.007 471.411 104.46C470.851 100.82 471.458 96.2935 473.231 90.8802L486.111 52.2402Z" stroke="#DC965A" stroke-opacity="0.35" stroke-width="2" mask="url(#path-1-outside-1_3076_91651)"/>
<path d="M564.223 41.1802C562.636 41.1802 560.769 42.5335 558.623 45.2402C556.476 47.8535 554.283 51.4002 552.043 55.8802C549.803 60.3602 547.703 65.3535 545.743 70.8602C543.876 76.3669 542.336 82.0135 541.123 87.8002C540.003 93.5869 539.443 99.0935 539.443 104.32C539.443 107.214 539.629 109.267 540.003 110.48C540.469 111.6 541.169 112.16 542.103 112.16C543.596 112.16 545.369 110.9 547.423 108.38C549.569 105.86 551.716 102.454 553.863 98.1602C556.103 93.8669 558.156 89.0135 560.023 83.6002C561.983 78.1869 563.569 72.5402 564.783 66.6602C565.996 60.6869 566.603 54.9002 566.603 49.3002C566.603 45.7535 566.369 43.5135 565.903 42.5802C565.436 41.6469 564.876 41.1802 564.223 41.1802ZM516.203 91.1602C516.203 86.7735 516.809 82.1535 518.023 77.3002C519.236 72.4469 521.103 67.7335 523.623 63.1602C526.143 58.4935 529.316 54.2935 533.143 50.5602C537.063 46.8269 541.636 43.8869 546.863 41.7402C552.183 39.5002 558.203 38.3802 564.923 38.3802C573.043 38.3802 579.203 40.4335 583.403 44.5402C587.696 48.6469 589.843 54.5269 589.843 62.1802C589.843 66.5669 589.236 71.1869 588.023 76.0402C586.809 80.8935 584.943 85.6535 582.423 90.3202C579.903 94.8935 576.683 99.0469 572.763 102.78C568.936 106.514 564.363 109.5 559.043 111.74C553.816 113.887 547.843 114.96 541.123 114.96C533.003 114.96 526.796 112.907 522.503 108.8C518.303 104.694 516.203 98.8135 516.203 91.1602Z" stroke="#DC965A" stroke-opacity="0.35" stroke-width="2" mask="url(#path-1-outside-1_3076_91651)"/>
</svg>
