<svg width="608" height="82" viewBox="0 0 608 82" fill="none" xmlns="http://www.w3.org/2000/svg">
<mask id="path-1-outside-1_3039_91792" maskUnits="userSpaceOnUse" x="0.921875" y="0.592285" width="607" height="81" fill="black">
<rect fill="white" x="0.921875" y="0.592285" width="607" height="81"/>
<path d="M1.92188 79V2.63632H34.8835C40.5511 2.63632 45.5103 3.75493 49.761 5.99215C54.0117 8.22936 57.3178 11.3739 59.6793 15.4257C62.0408 19.4776 63.2216 24.213 63.2216 29.6321C63.2216 35.1008 62.0035 39.8363 59.5675 43.8384C57.1563 47.8405 53.7631 50.9229 49.3881 53.0855C45.038 55.2482 39.9545 56.3295 34.1378 56.3295H14.4503V40.2215H29.9617C32.3977 40.2215 34.4734 39.799 36.1886 38.9538C37.9286 38.0838 39.2585 36.8533 40.1783 35.2624C41.1229 33.6715 41.5952 31.7947 41.5952 29.6321C41.5952 27.4446 41.1229 25.5802 40.1783 24.039C39.2585 22.473 37.9286 21.2798 36.1886 20.4595C34.4734 19.6143 32.3977 19.1917 29.9617 19.1917H22.6534V79H1.92188Z"/>
<path d="M144.805 40.8181C144.805 49.3196 143.152 56.4911 139.846 62.3327C136.54 68.1495 132.078 72.5618 126.46 75.5696C120.842 78.5525 114.578 80.044 107.668 80.044C100.707 80.044 94.4183 78.5401 88.8004 75.5323C83.2074 72.4996 78.7578 68.0749 75.4517 62.2581C72.1705 56.4165 70.5298 49.2698 70.5298 40.8181C70.5298 32.3167 72.1705 25.1576 75.4517 19.3409C78.7578 13.4992 83.2074 9.08696 88.8004 6.104C94.4183 3.09619 100.707 1.59229 107.668 1.59229C114.578 1.59229 120.842 3.09619 126.46 6.104C132.078 9.08696 136.54 13.4992 139.846 19.3409C143.152 25.1576 144.805 32.3167 144.805 40.8181ZM123.477 40.8181C123.477 36.2443 122.868 32.3913 121.65 29.2592C120.457 26.1022 118.68 23.7159 116.318 22.1001C113.982 20.4595 111.098 19.6392 107.668 19.6392C104.237 19.6392 101.341 20.4595 98.9798 22.1001C96.6431 23.7159 94.8658 26.1022 93.6477 29.2592C92.4545 32.3913 91.858 36.2443 91.858 40.8181C91.858 45.392 92.4545 49.2574 93.6477 52.4144C94.8658 55.5465 96.6431 57.9328 98.9798 59.5735C101.341 61.1892 104.237 61.9971 107.668 61.9971C111.098 61.9971 113.982 61.1892 116.318 59.5735C118.68 57.9328 120.457 55.5465 121.65 52.4144C122.868 49.2574 123.477 45.392 123.477 40.8181Z"/>
<path d="M154.397 79V2.63632H187.359C193.027 2.63632 197.986 3.66792 202.237 5.73113C206.487 7.79434 209.793 10.7649 212.155 14.6427C214.516 18.5206 215.697 23.169 215.697 28.588C215.697 34.0568 214.479 38.6679 212.043 42.4215C209.632 46.175 206.239 49.0088 201.864 50.9229C197.514 52.837 192.43 53.794 186.613 53.794H166.926V37.686H182.437C184.873 37.686 186.949 37.3877 188.664 36.7911C190.404 36.1697 191.734 35.1878 192.654 33.8455C193.598 32.5032 194.071 30.7507 194.071 28.588C194.071 26.4005 193.598 24.6232 192.654 23.256C191.734 21.864 190.404 20.8448 188.664 20.1985C186.949 19.5273 184.873 19.1917 182.437 19.1917H175.129V79H154.397ZM199.142 43.9502L218.233 79H195.711L177.068 43.9502H199.142Z"/>
<path d="M222.446 19.3409V2.63632H288.817V19.3409H265.848V79H245.415V19.3409H222.446Z"/>
<path d="M296.619 79V2.63632H350.312V19.3409H317.351V32.4659H347.031V49.1704H317.351V79H296.619Z"/>
<path d="M431.915 40.8181C431.915 49.3196 430.262 56.4911 426.956 62.3327C423.65 68.1495 419.188 72.5618 413.57 75.5696C407.952 78.5525 401.687 80.044 394.777 80.044C387.817 80.044 381.528 78.5401 375.91 75.5323C370.317 72.4996 365.867 68.0749 362.561 62.2581C359.28 56.4165 357.639 49.2698 357.639 40.8181C357.639 32.3167 359.28 25.1576 362.561 19.3409C365.867 13.4992 370.317 9.08696 375.91 6.104C381.528 3.09619 387.817 1.59229 394.777 1.59229C401.687 1.59229 407.952 3.09619 413.57 6.104C419.188 9.08696 423.65 13.4992 426.956 19.3409C430.262 25.1576 431.915 32.3167 431.915 40.8181ZM410.587 40.8181C410.587 36.2443 409.978 32.3913 408.76 29.2592C407.566 26.1022 405.789 23.7159 403.428 22.1001C401.091 20.4595 398.207 19.6392 394.777 19.6392C391.347 19.6392 388.451 20.4595 386.089 22.1001C383.752 23.7159 381.975 26.1022 380.757 29.2592C379.564 32.3913 378.967 36.2443 378.967 40.8181C378.967 45.392 379.564 49.2574 380.757 52.4144C381.975 55.5465 383.752 57.9328 386.089 59.5735C388.451 61.1892 391.347 61.9971 394.777 61.9971C398.207 61.9971 401.091 61.1892 403.428 59.5735C405.789 57.9328 407.566 55.5465 408.76 52.4144C409.978 49.2574 410.587 45.392 410.587 40.8181Z"/>
<path d="M441.507 79V2.63632H462.238V62.2954H493.112V79H441.507Z"/>
<path d="M522.224 2.63632V79H501.492V2.63632H522.224Z"/>
<path d="M606.026 40.8181C606.026 49.3196 604.373 56.4911 601.067 62.3327C597.761 68.1495 593.299 72.5618 587.681 75.5696C582.063 78.5525 575.799 80.044 568.888 80.044C561.928 80.044 555.639 78.5401 550.021 75.5323C544.428 72.4996 539.979 68.0749 536.672 62.2581C533.391 56.4165 531.751 49.2698 531.751 40.8181C531.751 32.3167 533.391 25.1576 536.672 19.3409C539.979 13.4992 544.428 9.08696 550.021 6.104C555.639 3.09619 561.928 1.59229 568.888 1.59229C575.799 1.59229 582.063 3.09619 587.681 6.104C593.299 9.08696 597.761 13.4992 601.067 19.3409C604.373 25.1576 606.026 32.3167 606.026 40.8181ZM584.698 40.8181C584.698 36.2443 584.089 32.3913 582.871 29.2592C581.678 26.1022 579.9 23.7159 577.539 22.1001C575.202 20.4595 572.319 19.6392 568.888 19.6392C565.458 19.6392 562.562 20.4595 560.2 22.1001C557.864 23.7159 556.086 26.1022 554.868 29.2592C553.675 32.3913 553.079 36.2443 553.079 40.8181C553.079 45.392 553.675 49.2574 554.868 52.4144C556.086 55.5465 557.864 57.9328 560.2 59.5735C562.562 61.1892 565.458 61.9971 568.888 61.9971C572.319 61.9971 575.202 61.1892 577.539 59.5735C579.9 57.9328 581.678 55.5465 582.871 52.4144C584.089 49.2574 584.698 45.392 584.698 40.8181Z"/>
</mask>
<path d="M1.92188 79V2.63632H34.8835C40.5511 2.63632 45.5103 3.75493 49.761 5.99215C54.0117 8.22936 57.3178 11.3739 59.6793 15.4257C62.0408 19.4776 63.2216 24.213 63.2216 29.6321C63.2216 35.1008 62.0035 39.8363 59.5675 43.8384C57.1563 47.8405 53.7631 50.9229 49.3881 53.0855C45.038 55.2482 39.9545 56.3295 34.1378 56.3295H14.4503V40.2215H29.9617C32.3977 40.2215 34.4734 39.799 36.1886 38.9538C37.9286 38.0838 39.2585 36.8533 40.1783 35.2624C41.1229 33.6715 41.5952 31.7947 41.5952 29.6321C41.5952 27.4446 41.1229 25.5802 40.1783 24.039C39.2585 22.473 37.9286 21.2798 36.1886 20.4595C34.4734 19.6143 32.3977 19.1917 29.9617 19.1917H22.6534V79H1.92188Z" stroke="black" stroke-opacity="0.2" stroke-width="2" mask="url(#path-1-outside-1_3039_91792)"/>
<path d="M144.805 40.8181C144.805 49.3196 143.152 56.4911 139.846 62.3327C136.54 68.1495 132.078 72.5618 126.46 75.5696C120.842 78.5525 114.578 80.044 107.668 80.044C100.707 80.044 94.4183 78.5401 88.8004 75.5323C83.2074 72.4996 78.7578 68.0749 75.4517 62.2581C72.1705 56.4165 70.5298 49.2698 70.5298 40.8181C70.5298 32.3167 72.1705 25.1576 75.4517 19.3409C78.7578 13.4992 83.2074 9.08696 88.8004 6.104C94.4183 3.09619 100.707 1.59229 107.668 1.59229C114.578 1.59229 120.842 3.09619 126.46 6.104C132.078 9.08696 136.54 13.4992 139.846 19.3409C143.152 25.1576 144.805 32.3167 144.805 40.8181ZM123.477 40.8181C123.477 36.2443 122.868 32.3913 121.65 29.2592C120.457 26.1022 118.68 23.7159 116.318 22.1001C113.982 20.4595 111.098 19.6392 107.668 19.6392C104.237 19.6392 101.341 20.4595 98.9798 22.1001C96.6431 23.7159 94.8658 26.1022 93.6477 29.2592C92.4545 32.3913 91.858 36.2443 91.858 40.8181C91.858 45.392 92.4545 49.2574 93.6477 52.4144C94.8658 55.5465 96.6431 57.9328 98.9798 59.5735C101.341 61.1892 104.237 61.9971 107.668 61.9971C111.098 61.9971 113.982 61.1892 116.318 59.5735C118.68 57.9328 120.457 55.5465 121.65 52.4144C122.868 49.2574 123.477 45.392 123.477 40.8181Z" stroke="black" stroke-opacity="0.2" stroke-width="2" mask="url(#path-1-outside-1_3039_91792)"/>
<path d="M154.397 79V2.63632H187.359C193.027 2.63632 197.986 3.66792 202.237 5.73113C206.487 7.79434 209.793 10.7649 212.155 14.6427C214.516 18.5206 215.697 23.169 215.697 28.588C215.697 34.0568 214.479 38.6679 212.043 42.4215C209.632 46.175 206.239 49.0088 201.864 50.9229C197.514 52.837 192.43 53.794 186.613 53.794H166.926V37.686H182.437C184.873 37.686 186.949 37.3877 188.664 36.7911C190.404 36.1697 191.734 35.1878 192.654 33.8455C193.598 32.5032 194.071 30.7507 194.071 28.588C194.071 26.4005 193.598 24.6232 192.654 23.256C191.734 21.864 190.404 20.8448 188.664 20.1985C186.949 19.5273 184.873 19.1917 182.437 19.1917H175.129V79H154.397ZM199.142 43.9502L218.233 79H195.711L177.068 43.9502H199.142Z" stroke="black" stroke-opacity="0.2" stroke-width="2" mask="url(#path-1-outside-1_3039_91792)"/>
<path d="M222.446 19.3409V2.63632H288.817V19.3409H265.848V79H245.415V19.3409H222.446Z" stroke="black" stroke-opacity="0.2" stroke-width="2" mask="url(#path-1-outside-1_3039_91792)"/>
<path d="M296.619 79V2.63632H350.312V19.3409H317.351V32.4659H347.031V49.1704H317.351V79H296.619Z" stroke="black" stroke-opacity="0.2" stroke-width="2" mask="url(#path-1-outside-1_3039_91792)"/>
<path d="M431.915 40.8181C431.915 49.3196 430.262 56.4911 426.956 62.3327C423.65 68.1495 419.188 72.5618 413.57 75.5696C407.952 78.5525 401.687 80.044 394.777 80.044C387.817 80.044 381.528 78.5401 375.91 75.5323C370.317 72.4996 365.867 68.0749 362.561 62.2581C359.28 56.4165 357.639 49.2698 357.639 40.8181C357.639 32.3167 359.28 25.1576 362.561 19.3409C365.867 13.4992 370.317 9.08696 375.91 6.104C381.528 3.09619 387.817 1.59229 394.777 1.59229C401.687 1.59229 407.952 3.09619 413.57 6.104C419.188 9.08696 423.65 13.4992 426.956 19.3409C430.262 25.1576 431.915 32.3167 431.915 40.8181ZM410.587 40.8181C410.587 36.2443 409.978 32.3913 408.76 29.2592C407.566 26.1022 405.789 23.7159 403.428 22.1001C401.091 20.4595 398.207 19.6392 394.777 19.6392C391.347 19.6392 388.451 20.4595 386.089 22.1001C383.752 23.7159 381.975 26.1022 380.757 29.2592C379.564 32.3913 378.967 36.2443 378.967 40.8181C378.967 45.392 379.564 49.2574 380.757 52.4144C381.975 55.5465 383.752 57.9328 386.089 59.5735C388.451 61.1892 391.347 61.9971 394.777 61.9971C398.207 61.9971 401.091 61.1892 403.428 59.5735C405.789 57.9328 407.566 55.5465 408.76 52.4144C409.978 49.2574 410.587 45.392 410.587 40.8181Z" stroke="black" stroke-opacity="0.2" stroke-width="2" mask="url(#path-1-outside-1_3039_91792)"/>
<path d="M441.507 79V2.63632H462.238V62.2954H493.112V79H441.507Z" stroke="black" stroke-opacity="0.2" stroke-width="2" mask="url(#path-1-outside-1_3039_91792)"/>
<path d="M522.224 2.63632V79H501.492V2.63632H522.224Z" stroke="black" stroke-opacity="0.2" stroke-width="2" mask="url(#path-1-outside-1_3039_91792)"/>
<path d="M606.026 40.8181C606.026 49.3196 604.373 56.4911 601.067 62.3327C597.761 68.1495 593.299 72.5618 587.681 75.5696C582.063 78.5525 575.799 80.044 568.888 80.044C561.928 80.044 555.639 78.5401 550.021 75.5323C544.428 72.4996 539.979 68.0749 536.672 62.2581C533.391 56.4165 531.751 49.2698 531.751 40.8181C531.751 32.3167 533.391 25.1576 536.672 19.3409C539.979 13.4992 544.428 9.08696 550.021 6.104C555.639 3.09619 561.928 1.59229 568.888 1.59229C575.799 1.59229 582.063 3.09619 587.681 6.104C593.299 9.08696 597.761 13.4992 601.067 19.3409C604.373 25.1576 606.026 32.3167 606.026 40.8181ZM584.698 40.8181C584.698 36.2443 584.089 32.3913 582.871 29.2592C581.678 26.1022 579.9 23.7159 577.539 22.1001C575.202 20.4595 572.319 19.6392 568.888 19.6392C565.458 19.6392 562.562 20.4595 560.2 22.1001C557.864 23.7159 556.086 26.1022 554.868 29.2592C553.675 32.3913 553.079 36.2443 553.079 40.8181C553.079 45.392 553.675 49.2574 554.868 52.4144C556.086 55.5465 557.864 57.9328 560.2 59.5735C562.562 61.1892 565.458 61.9971 568.888 61.9971C572.319 61.9971 575.202 61.1892 577.539 59.5735C579.9 57.9328 581.678 55.5465 582.871 52.4144C584.089 49.2574 584.698 45.392 584.698 40.8181Z" stroke="black" stroke-opacity="0.2" stroke-width="2" mask="url(#path-1-outside-1_3039_91792)"/>
</svg>
