<svg width="531" height="81" viewBox="0 0 531 81" fill="none" xmlns="http://www.w3.org/2000/svg">
<mask id="path-1-outside-1_3039_91794" maskUnits="userSpaceOnUse" x="0" y="0" width="531" height="81" fill="black">
<rect fill="white" width="531" height="81"/>
<path d="M45.1037 25.9077C44.9048 23.4219 43.9727 21.483 42.3072 20.0909C40.6665 18.6989 38.1683 18.0028 34.8125 18.0028C32.6747 18.0028 30.9222 18.2638 29.555 18.7859C28.2127 19.283 27.2184 19.9666 26.5721 20.8366C25.9258 21.7067 25.5902 22.701 25.5653 23.8196C25.5156 24.7393 25.6772 25.5721 26.0501 26.3178C26.4478 27.0387 27.0692 27.6974 27.9144 28.294C28.7596 28.8658 29.8409 29.3878 31.1584 29.8601C32.4759 30.3324 34.0419 30.755 35.8565 31.1278L42.1207 32.4702C46.3466 33.3651 49.9634 34.5458 52.9712 36.0124C55.979 37.4791 58.44 39.2067 60.354 41.1953C62.2681 43.1591 63.6726 45.3715 64.5675 47.8324C65.4872 50.2933 65.9595 52.978 65.9844 55.8864C65.9595 60.9077 64.7042 65.1584 62.2184 68.6385C59.7326 72.1186 56.1779 74.766 51.5543 76.5806C46.9556 78.3953 41.4247 79.3026 34.9616 79.3026C28.3246 79.3026 22.5327 78.3207 17.5859 76.3569C12.6641 74.3931 8.83594 71.3729 6.10156 67.2962C3.39205 63.1946 2.02486 57.9496 2 51.5611H21.6875C21.8118 53.8977 22.396 55.8615 23.44 57.4524C24.484 59.0433 25.9506 60.2489 27.8398 61.0692C29.7539 61.8896 32.0284 62.2997 34.6634 62.2997C36.8757 62.2997 38.7276 62.0263 40.2191 61.4794C41.7106 60.9325 42.8416 60.1744 43.6122 59.2049C44.3828 58.2354 44.7805 57.1293 44.8054 55.8864C44.7805 54.718 44.3952 53.6989 43.6495 52.8288C42.9286 51.9339 41.7354 51.1385 40.07 50.4425C38.4045 49.7216 36.1548 49.0504 33.321 48.429L25.7145 46.7884C18.9531 45.3217 13.6211 42.8732 9.7184 39.4428C5.84055 35.9876 3.91406 31.277 3.93892 25.3111C3.91406 20.4638 5.20668 16.2255 7.81676 12.5962C10.4517 8.94212 14.0934 6.09588 18.7418 4.05753C23.4151 2.01918 28.772 1 34.8125 1C40.9773 1 46.3093 2.03161 50.8086 4.09482C55.3079 6.15803 58.7756 9.06641 61.2116 12.82C63.6726 16.5487 64.9155 20.9112 64.9403 25.9077H45.1037Z"/>
<path d="M73.8706 78.4077V2.04403H128.906V18.7486H94.6021V31.8736H126.072V48.5781H94.6021V61.7031H128.757V78.4077H73.8706Z"/>
<path d="M139.188 78.4077V2.04403H172.15C177.817 2.04403 182.776 3.07564 187.027 5.13885C191.278 7.20206 194.584 10.1726 196.945 14.0504C199.307 17.9283 200.488 22.5767 200.488 27.9957C200.488 33.4645 199.27 38.0756 196.834 41.8292C194.422 45.5827 191.029 48.4165 186.654 50.3306C182.304 52.2447 177.221 53.2017 171.404 53.2017H151.716V37.0938H167.228C169.664 37.0938 171.739 36.7955 173.455 36.1989C175.195 35.5774 176.525 34.5955 177.444 33.2532C178.389 31.9109 178.861 30.1584 178.861 27.9957C178.861 25.8082 178.389 24.0309 177.444 22.6637C176.525 21.2717 175.195 20.2525 173.455 19.6062C171.739 18.935 169.664 18.5994 167.228 18.5994H159.919V78.4077H139.188ZM183.932 43.358L203.023 78.4077H180.502L161.858 43.358H183.932Z"/>
<path d="M227.847 2.04403L243.507 55.8864H244.104L259.765 2.04403H283.181L257.975 78.4077H229.637L204.431 2.04403H227.847Z"/>
<path d="M311.267 2.04403V78.4077H290.536V2.04403H311.267Z"/>
<path d="M392.385 30.6804H371.355C371.206 28.9403 370.808 27.3619 370.162 25.945C369.54 24.5281 368.67 23.31 367.552 22.2908C366.458 21.2468 365.128 20.4514 363.562 19.9045C361.996 19.3327 360.219 19.0469 358.23 19.0469C354.75 19.0469 351.804 19.892 349.393 21.5824C347.007 23.2727 345.192 25.6964 343.949 28.8533C342.731 32.0103 342.122 35.8011 342.122 40.2259C342.122 44.8991 342.744 48.8143 343.986 51.9712C345.254 55.1033 347.081 57.4648 349.468 59.0558C351.854 60.6218 354.725 61.4048 358.081 61.4048C359.995 61.4048 361.71 61.1687 363.227 60.6964C364.743 60.1992 366.06 59.4908 367.179 58.571C368.298 57.6513 369.205 56.5451 369.901 55.2525C370.622 53.935 371.106 52.456 371.355 50.8153L392.385 50.9645C392.136 54.196 391.229 57.4897 389.663 60.8455C388.097 64.1765 385.872 67.2589 382.989 70.0927C380.13 72.9016 376.588 75.1637 372.362 76.8789C368.136 78.5941 363.226 79.4517 357.633 79.4517C350.624 79.4517 344.334 77.9478 338.766 74.94C333.223 71.9322 328.836 67.5075 325.604 61.6658C322.397 55.8242 320.794 48.6776 320.794 40.2259C320.794 31.7244 322.435 24.5653 325.716 18.7486C328.997 12.907 333.422 8.49467 338.99 5.51172C344.558 2.50391 350.773 1 357.633 1C362.456 1 366.893 1.65874 370.945 2.97621C374.997 4.29368 378.551 6.22017 381.609 8.75568C384.666 11.2663 387.127 14.3612 388.992 18.0401C390.856 21.7191 391.987 25.9325 392.385 30.6804Z"/>
<path d="M401.79 78.4077V2.04403H456.826V18.7486H422.522V31.8736H453.992V48.5781H422.522V61.7031H456.677V78.4077H401.79Z"/>
<path d="M508.273 25.9077C508.074 23.4219 507.142 21.483 505.476 20.0909C503.836 18.6989 501.337 18.0028 497.981 18.0028C495.844 18.0028 494.091 18.2638 492.724 18.7859C491.382 19.283 490.387 19.9666 489.741 20.8366C489.095 21.7067 488.759 22.701 488.734 23.8196C488.685 24.7393 488.846 25.5721 489.219 26.3178C489.617 27.0387 490.238 27.6974 491.083 28.294C491.929 28.8658 493.01 29.3878 494.327 29.8601C495.645 30.3324 497.211 30.755 499.025 31.1278L505.29 32.4702C509.516 33.3651 513.132 34.5458 516.14 36.0124C519.148 37.4791 521.609 39.2067 523.523 41.1953C525.437 43.1591 526.842 45.3715 527.736 47.8324C528.656 50.2933 529.128 52.978 529.153 55.8864C529.128 60.9077 527.873 65.1584 525.387 68.6385C522.902 72.1186 519.347 74.766 514.723 76.5806C510.125 78.3953 504.594 79.3026 498.131 79.3026C491.494 79.3026 485.702 78.3207 480.755 76.3569C475.833 74.3931 472.005 71.3729 469.271 67.2962C466.561 63.1946 465.194 57.9496 465.169 51.5611H484.856C484.981 53.8977 485.565 55.8615 486.609 57.4524C487.653 59.0433 489.12 60.2489 491.009 61.0692C492.923 61.8896 495.197 62.2997 497.832 62.2997C500.045 62.2997 501.897 62.0263 503.388 61.4794C504.88 60.9325 506.011 60.1744 506.781 59.2049C507.552 58.2354 507.95 57.1293 507.974 55.8864C507.95 54.718 507.564 53.6989 506.818 52.8288C506.098 51.9339 504.904 51.1385 503.239 50.4425C501.573 49.7216 499.324 49.0504 496.49 48.429L488.883 46.7884C482.122 45.3217 476.79 42.8732 472.887 39.4428C469.01 35.9876 467.083 31.277 467.108 25.3111C467.083 20.4638 468.376 16.2255 470.986 12.5962C473.621 8.94212 477.262 6.09588 481.911 4.05753C486.584 2.01918 491.941 1 497.981 1C504.146 1 509.478 2.03161 513.978 4.09482C518.477 6.15803 521.944 9.06641 524.381 12.82C526.841 16.5487 528.084 20.9112 528.109 25.9077H508.273Z"/>
</mask>
<path d="M45.1037 25.9077C44.9048 23.4219 43.9727 21.483 42.3072 20.0909C40.6665 18.6989 38.1683 18.0028 34.8125 18.0028C32.6747 18.0028 30.9222 18.2638 29.555 18.7859C28.2127 19.283 27.2184 19.9666 26.5721 20.8366C25.9258 21.7067 25.5902 22.701 25.5653 23.8196C25.5156 24.7393 25.6772 25.5721 26.0501 26.3178C26.4478 27.0387 27.0692 27.6974 27.9144 28.294C28.7596 28.8658 29.8409 29.3878 31.1584 29.8601C32.4759 30.3324 34.0419 30.755 35.8565 31.1278L42.1207 32.4702C46.3466 33.3651 49.9634 34.5458 52.9712 36.0124C55.979 37.4791 58.44 39.2067 60.354 41.1953C62.2681 43.1591 63.6726 45.3715 64.5675 47.8324C65.4872 50.2933 65.9595 52.978 65.9844 55.8864C65.9595 60.9077 64.7042 65.1584 62.2184 68.6385C59.7326 72.1186 56.1779 74.766 51.5543 76.5806C46.9556 78.3953 41.4247 79.3026 34.9616 79.3026C28.3246 79.3026 22.5327 78.3207 17.5859 76.3569C12.6641 74.3931 8.83594 71.3729 6.10156 67.2962C3.39205 63.1946 2.02486 57.9496 2 51.5611H21.6875C21.8118 53.8977 22.396 55.8615 23.44 57.4524C24.484 59.0433 25.9506 60.2489 27.8398 61.0692C29.7539 61.8896 32.0284 62.2997 34.6634 62.2997C36.8757 62.2997 38.7276 62.0263 40.2191 61.4794C41.7106 60.9325 42.8416 60.1744 43.6122 59.2049C44.3828 58.2354 44.7805 57.1293 44.8054 55.8864C44.7805 54.718 44.3952 53.6989 43.6495 52.8288C42.9286 51.9339 41.7354 51.1385 40.07 50.4425C38.4045 49.7216 36.1548 49.0504 33.321 48.429L25.7145 46.7884C18.9531 45.3217 13.6211 42.8732 9.7184 39.4428C5.84055 35.9876 3.91406 31.277 3.93892 25.3111C3.91406 20.4638 5.20668 16.2255 7.81676 12.5962C10.4517 8.94212 14.0934 6.09588 18.7418 4.05753C23.4151 2.01918 28.772 1 34.8125 1C40.9773 1 46.3093 2.03161 50.8086 4.09482C55.3079 6.15803 58.7756 9.06641 61.2116 12.82C63.6726 16.5487 64.9155 20.9112 64.9403 25.9077H45.1037Z" stroke="black" stroke-opacity="0.2" stroke-width="2" mask="url(#path-1-outside-1_3039_91794)"/>
<path d="M73.8706 78.4077V2.04403H128.906V18.7486H94.6021V31.8736H126.072V48.5781H94.6021V61.7031H128.757V78.4077H73.8706Z" stroke="black" stroke-opacity="0.2" stroke-width="2" mask="url(#path-1-outside-1_3039_91794)"/>
<path d="M139.188 78.4077V2.04403H172.15C177.817 2.04403 182.776 3.07564 187.027 5.13885C191.278 7.20206 194.584 10.1726 196.945 14.0504C199.307 17.9283 200.488 22.5767 200.488 27.9957C200.488 33.4645 199.27 38.0756 196.834 41.8292C194.422 45.5827 191.029 48.4165 186.654 50.3306C182.304 52.2447 177.221 53.2017 171.404 53.2017H151.716V37.0938H167.228C169.664 37.0938 171.739 36.7955 173.455 36.1989C175.195 35.5774 176.525 34.5955 177.444 33.2532C178.389 31.9109 178.861 30.1584 178.861 27.9957C178.861 25.8082 178.389 24.0309 177.444 22.6637C176.525 21.2717 175.195 20.2525 173.455 19.6062C171.739 18.935 169.664 18.5994 167.228 18.5994H159.919V78.4077H139.188ZM183.932 43.358L203.023 78.4077H180.502L161.858 43.358H183.932Z" stroke="black" stroke-opacity="0.2" stroke-width="2" mask="url(#path-1-outside-1_3039_91794)"/>
<path d="M227.847 2.04403L243.507 55.8864H244.104L259.765 2.04403H283.181L257.975 78.4077H229.637L204.431 2.04403H227.847Z" stroke="black" stroke-opacity="0.2" stroke-width="2" mask="url(#path-1-outside-1_3039_91794)"/>
<path d="M311.267 2.04403V78.4077H290.536V2.04403H311.267Z" stroke="black" stroke-opacity="0.2" stroke-width="2" mask="url(#path-1-outside-1_3039_91794)"/>
<path d="M392.385 30.6804H371.355C371.206 28.9403 370.808 27.3619 370.162 25.945C369.54 24.5281 368.67 23.31 367.552 22.2908C366.458 21.2468 365.128 20.4514 363.562 19.9045C361.996 19.3327 360.219 19.0469 358.23 19.0469C354.75 19.0469 351.804 19.892 349.393 21.5824C347.007 23.2727 345.192 25.6964 343.949 28.8533C342.731 32.0103 342.122 35.8011 342.122 40.2259C342.122 44.8991 342.744 48.8143 343.986 51.9712C345.254 55.1033 347.081 57.4648 349.468 59.0558C351.854 60.6218 354.725 61.4048 358.081 61.4048C359.995 61.4048 361.71 61.1687 363.227 60.6964C364.743 60.1992 366.06 59.4908 367.179 58.571C368.298 57.6513 369.205 56.5451 369.901 55.2525C370.622 53.935 371.106 52.456 371.355 50.8153L392.385 50.9645C392.136 54.196 391.229 57.4897 389.663 60.8455C388.097 64.1765 385.872 67.2589 382.989 70.0927C380.13 72.9016 376.588 75.1637 372.362 76.8789C368.136 78.5941 363.226 79.4517 357.633 79.4517C350.624 79.4517 344.334 77.9478 338.766 74.94C333.223 71.9322 328.836 67.5075 325.604 61.6658C322.397 55.8242 320.794 48.6776 320.794 40.2259C320.794 31.7244 322.435 24.5653 325.716 18.7486C328.997 12.907 333.422 8.49467 338.99 5.51172C344.558 2.50391 350.773 1 357.633 1C362.456 1 366.893 1.65874 370.945 2.97621C374.997 4.29368 378.551 6.22017 381.609 8.75568C384.666 11.2663 387.127 14.3612 388.992 18.0401C390.856 21.7191 391.987 25.9325 392.385 30.6804Z" stroke="black" stroke-opacity="0.2" stroke-width="2" mask="url(#path-1-outside-1_3039_91794)"/>
<path d="M401.79 78.4077V2.04403H456.826V18.7486H422.522V31.8736H453.992V48.5781H422.522V61.7031H456.677V78.4077H401.79Z" stroke="black" stroke-opacity="0.2" stroke-width="2" mask="url(#path-1-outside-1_3039_91794)"/>
<path d="M508.273 25.9077C508.074 23.4219 507.142 21.483 505.476 20.0909C503.836 18.6989 501.337 18.0028 497.981 18.0028C495.844 18.0028 494.091 18.2638 492.724 18.7859C491.382 19.283 490.387 19.9666 489.741 20.8366C489.095 21.7067 488.759 22.701 488.734 23.8196C488.685 24.7393 488.846 25.5721 489.219 26.3178C489.617 27.0387 490.238 27.6974 491.083 28.294C491.929 28.8658 493.01 29.3878 494.327 29.8601C495.645 30.3324 497.211 30.755 499.025 31.1278L505.29 32.4702C509.516 33.3651 513.132 34.5458 516.14 36.0124C519.148 37.4791 521.609 39.2067 523.523 41.1953C525.437 43.1591 526.842 45.3715 527.736 47.8324C528.656 50.2933 529.128 52.978 529.153 55.8864C529.128 60.9077 527.873 65.1584 525.387 68.6385C522.902 72.1186 519.347 74.766 514.723 76.5806C510.125 78.3953 504.594 79.3026 498.131 79.3026C491.494 79.3026 485.702 78.3207 480.755 76.3569C475.833 74.3931 472.005 71.3729 469.271 67.2962C466.561 63.1946 465.194 57.9496 465.169 51.5611H484.856C484.981 53.8977 485.565 55.8615 486.609 57.4524C487.653 59.0433 489.12 60.2489 491.009 61.0692C492.923 61.8896 495.197 62.2997 497.832 62.2997C500.045 62.2997 501.897 62.0263 503.388 61.4794C504.88 60.9325 506.011 60.1744 506.781 59.2049C507.552 58.2354 507.95 57.1293 507.974 55.8864C507.95 54.718 507.564 53.6989 506.818 52.8288C506.098 51.9339 504.904 51.1385 503.239 50.4425C501.573 49.7216 499.324 49.0504 496.49 48.429L488.883 46.7884C482.122 45.3217 476.79 42.8732 472.887 39.4428C469.01 35.9876 467.083 31.277 467.108 25.3111C467.083 20.4638 468.376 16.2255 470.986 12.5962C473.621 8.94212 477.262 6.09588 481.911 4.05753C486.584 2.01918 491.941 1 497.981 1C504.146 1 509.478 2.03161 513.978 4.09482C518.477 6.15803 521.944 9.06641 524.381 12.82C526.841 16.5487 528.084 20.9112 528.109 25.9077H508.273Z" stroke="black" stroke-opacity="0.2" stroke-width="2" mask="url(#path-1-outside-1_3039_91794)"/>
</svg>
