<svg width="552" height="114" viewBox="0 0 552 114" fill="none" xmlns="http://www.w3.org/2000/svg">
<mask id="path-1-outside-1_3076_91650" maskUnits="userSpaceOnUse" x="0.0996094" y="0.52002" width="552" height="114" fill="black">
<rect fill="white" x="0.0996094" y="0.52002" width="552" height="114"/>
<path d="M97.8596 10.9C96.9263 13.3267 95.6663 16.8734 94.0796 21.54C92.4929 26.1134 90.9996 32.0867 89.5996 39.46H86.7996C87.0796 38.1534 87.2663 36.8 87.3596 35.4C87.5463 34 87.6396 32.7867 87.6396 31.76C87.6396 27.9334 86.7996 24.7134 85.1196 22.1C83.5329 19.3934 81.2463 17.34 78.2596 15.94C75.2729 14.4467 71.6796 13.7 67.4796 13.7C63.4663 13.7 59.9196 14.7267 56.8396 16.78C53.8529 18.8334 52.3596 22.3334 52.3596 27.28C52.3596 30.4534 53.1063 33.58 54.5996 36.66C56.0929 39.6467 58.0063 42.6334 60.3396 45.62C62.7663 48.6067 65.2863 51.64 67.8996 54.72C70.6063 57.7067 73.1263 60.7867 75.4596 63.96C77.8863 67.04 79.8463 70.3067 81.3396 73.76C82.833 77.2134 83.5796 80.8534 83.5796 84.68C83.5796 89.8134 82.2263 94.2 79.5196 97.84C76.8129 101.387 73.3596 104.28 69.1596 106.52C64.9596 108.76 60.5263 110.393 55.8596 111.42C51.1929 112.447 46.8529 112.96 42.8396 112.96C37.9863 112.96 34.0196 112.727 30.9396 112.26C27.8596 111.793 25.1996 111.093 22.9596 110.16C20.7196 109.133 18.2929 107.92 15.6796 106.52C14.7463 105.96 13.8596 105.493 13.0196 105.12C12.1796 104.653 11.4796 104.42 10.9196 104.42C9.70628 104.42 8.72628 104.933 7.97961 105.96C7.23294 106.987 6.20628 108.993 4.89961 111.98H2.09961C2.93961 109.927 3.82628 107.547 4.75961 104.84C5.69294 102.133 6.71961 98.68 7.83961 94.48C8.95961 90.1867 10.2196 84.82 11.6196 78.38H14.4196C13.9529 79.78 13.5796 81.5534 13.2996 83.7C13.1129 85.7534 13.0663 87.62 13.1596 89.3C13.4396 96.1134 15.5863 101.247 19.5996 104.7C23.6129 108.06 29.0729 109.74 35.9796 109.74C42.5129 109.74 46.8529 108.527 48.9996 106.1C51.2396 103.58 52.3596 100.5 52.3596 96.86C52.3596 92.94 51.6596 89.3 50.2596 85.94C48.9529 82.4867 47.2263 79.2667 45.0796 76.28C42.9329 73.2 40.6463 70.2134 38.2196 67.32C35.8863 64.3334 33.6463 61.3467 31.4996 58.36C29.3529 55.3734 27.5796 52.2467 26.1796 48.98C24.8729 45.62 24.2196 42.0734 24.2196 38.34C24.2196 33.3934 25.3396 29.1467 27.5796 25.6C29.9129 22.0534 32.9463 19.1134 36.6796 16.78C40.4129 14.4467 44.4263 12.72 48.7196 11.6C53.0129 10.48 57.1196 9.92002 61.0396 9.92002C67.6663 9.92002 72.9396 10.76 76.8596 12.44C80.7796 14.0267 83.7663 15.3334 85.8196 16.36C86.5663 16.7334 87.4063 17.1534 88.3396 17.62C89.2729 18.0867 89.9729 18.32 90.4396 18.32C91.7463 18.32 93.2863 15.8467 95.0596 10.9H97.8596Z"/>
<path d="M114.992 81.6C117.979 80.2 120.919 78.52 123.812 76.56C126.705 74.6 129.365 72.4534 131.792 70.12C135.525 66.48 138.559 62.3267 140.892 57.66C143.319 52.9934 144.532 47.9534 144.532 42.54C144.532 41.2334 144.345 40.3467 143.972 39.88C143.599 39.32 143.039 39.04 142.292 39.04C140.425 39.04 138.372 40.1134 136.132 42.26C133.985 44.3134 131.839 47.1134 129.692 50.66C127.545 54.1134 125.585 58.0334 123.812 62.42C122.132 66.8067 120.732 71.3334 119.612 76C118.585 80.5734 118.072 85.0067 118.072 89.3C118.072 94.7134 119.145 98.3534 121.292 100.22C123.439 101.993 126.239 102.88 129.692 102.88C131.559 102.88 134.359 102.18 138.092 100.78C141.825 99.38 145.559 96.8134 149.292 93.08L151.532 94.2C149.479 97.28 146.772 100.267 143.412 103.16C140.052 106.053 136.085 108.433 131.512 110.3C126.939 112.073 121.805 112.96 116.112 112.96C111.725 112.96 107.665 112.213 103.932 110.72C100.292 109.227 97.3521 107.033 95.1121 104.14C92.9654 101.153 91.8921 97.5134 91.8921 93.22C91.8921 87.7134 92.7321 82.2534 94.4121 76.84C96.1854 71.4267 98.6588 66.2934 101.832 61.44C105.005 56.5867 108.785 52.2934 113.172 48.56C117.652 44.7334 122.599 41.7467 128.012 39.6C133.425 37.4534 139.212 36.38 145.372 36.38C150.319 36.38 154.425 37.4067 157.692 39.46C161.052 41.42 162.732 44.5 162.732 48.7C162.732 52.2467 161.799 55.6067 159.932 58.78C158.065 61.86 155.499 64.7067 152.232 67.32C148.965 69.84 145.279 72.1267 141.172 74.18C137.065 76.2334 132.725 78.0067 128.152 79.5C123.672 80.9934 119.239 82.16 114.852 83L114.992 81.6Z"/>
<path d="M186.965 111H162.185L179.265 50.24C179.825 48.0934 180.012 46.6 179.825 45.76C179.639 44.8267 179.032 44.36 178.005 44.36C176.605 44.36 175.299 45.0134 174.085 46.32C172.872 47.5334 171.612 49.82 170.305 53.18L167.085 61.72H164.425L168.345 50.8C169.652 47.2534 171.285 44.4534 173.245 42.4C175.299 40.2534 177.679 38.7134 180.385 37.78C183.092 36.8467 186.032 36.38 189.205 36.38C192.379 36.38 194.899 36.9867 196.765 38.2C198.632 39.32 199.985 40.86 200.825 42.82C201.665 44.78 202.085 46.9267 202.085 49.26C202.179 51.5 201.945 53.74 201.385 55.98L186.965 111ZM222.665 39.18C220.892 39.18 218.979 39.46 216.925 40.02C214.965 40.58 212.865 42.0267 210.625 44.36C208.479 46.6 206.145 50.24 203.625 55.28C201.199 60.32 198.585 67.32 195.785 76.28C192.985 85.24 190.045 96.6734 186.965 110.58L189.905 90.98C192.705 80.06 195.272 71.1 197.605 64.1C199.939 57.0067 202.272 51.4534 204.605 47.44C206.939 43.3334 209.505 40.4867 212.305 38.9C215.105 37.22 218.372 36.38 222.105 36.38C226.492 36.38 229.852 37.6867 232.185 40.3C234.519 42.9134 235.685 46.1334 235.685 49.96C235.685 53.04 234.985 55.9334 233.585 58.64C232.279 61.2534 230.412 63.4 227.985 65.08C225.652 66.6667 222.945 67.46 219.865 67.46C216.412 67.46 213.799 66.5734 212.025 64.8C210.252 63.0267 209.365 60.4134 209.365 56.96C209.365 54.16 210.065 51.5467 211.465 49.12C212.865 46.6934 214.732 44.64 217.065 42.96C219.399 41.1867 221.919 40.0667 224.625 39.6C224.345 39.5067 224.019 39.4134 223.645 39.32C223.365 39.2267 223.039 39.18 222.665 39.18Z"/>
<path d="M296.449 69.56C291.875 67.4134 288.049 64.4734 284.969 60.74C281.889 56.9134 280.349 52.62 280.349 47.86C280.349 44.3134 281.282 41.5134 283.149 39.46C285.109 37.4067 287.815 36.38 291.269 36.38C295.002 36.38 297.709 37.5934 299.389 40.02C301.069 42.4467 301.909 45.8067 301.909 50.1C301.909 55.2334 301.302 60.6934 300.089 66.48C298.969 72.2667 297.195 77.9134 294.769 83.42C292.435 88.9267 289.402 93.92 285.669 98.4C282.029 102.787 277.688 106.333 272.648 109.04C267.702 111.653 262.009 112.96 255.569 112.96C249.782 112.96 245.255 112.12 241.989 110.44C238.815 108.667 236.575 106.473 235.269 103.86C233.962 101.153 233.309 98.4 233.309 95.6C233.309 89.5334 235.082 83.56 238.629 77.68C242.175 71.7067 247.029 65.78 253.189 59.9C259.442 54.02 266.442 48.1867 274.189 42.4C271.295 42.4934 268.822 43.24 266.769 44.64C264.809 45.9467 263.035 47.44 261.449 49.12C259.862 50.8 258.275 52.2934 256.689 53.6C255.195 54.8134 253.469 55.42 251.509 55.42C250.015 55.42 248.709 55.0934 247.589 54.44C246.562 53.6934 245.395 53.32 244.089 53.32C242.875 53.32 241.942 53.74 241.289 54.58C240.635 55.42 240.029 56.7734 239.469 58.64L238.489 61.58H235.829L238.909 51.36C240.589 45.3867 242.595 41.3734 244.929 39.32C247.262 37.2667 249.642 36.24 252.069 36.24C253.842 36.24 255.382 36.5667 256.689 37.22C257.995 37.8734 259.442 38.5734 261.029 39.32C262.615 39.9734 264.762 40.3 267.469 40.3C268.402 40.3 269.662 40.2067 271.249 40.02C272.835 39.74 274.609 39.1334 276.569 38.2L277.969 35.54L280.909 36.94C277.829 41.98 274.982 47.2534 272.368 52.76C269.848 58.1734 267.655 63.5867 265.789 69C263.922 74.32 262.475 79.3134 261.449 83.98C260.422 88.6467 259.909 92.66 259.909 96.02C259.909 99.1934 260.375 101.573 261.309 103.16C262.242 104.747 263.922 105.54 266.349 105.54C269.242 105.54 271.995 104.887 274.609 103.58C277.222 102.273 279.649 100.453 281.889 98.12C284.129 95.7867 286.182 93.1267 288.049 90.14C289.915 87.06 291.549 83.7934 292.949 80.34C294.349 76.7934 295.515 73.2 296.449 69.56Z"/>
<path d="M327.886 16.36C327.886 11.32 329.519 7.5867 332.786 5.16003C336.053 2.73336 340.113 1.52002 344.966 1.52002C349.073 1.52002 352.153 2.31336 354.206 3.90002C356.353 5.48669 357.426 7.86669 357.426 11.04C357.426 15.4267 355.746 18.9734 352.386 21.68C349.12 24.2934 345.06 25.6 340.206 25.6C336.193 25.6 333.113 24.8067 330.966 23.22C328.913 21.6334 327.886 19.3467 327.886 16.36ZM322.006 50.24C323.313 46.32 322.893 44.36 320.746 44.36C319.346 44.36 318.04 45.0134 316.826 46.32C315.613 47.5334 314.353 49.82 313.046 53.18L309.826 61.72H307.166L311.086 50.8C312.393 47.2534 314.026 44.4534 315.986 42.4C318.04 40.2534 320.419 38.7134 323.126 37.78C325.833 36.8467 328.773 36.38 331.946 36.38C335.493 36.38 338.34 36.9867 340.486 38.2C342.633 39.4134 344.173 41 345.106 42.96C346.04 44.8267 346.506 46.9267 346.506 49.26C346.506 51.5 346.133 53.74 345.386 55.98L330.826 99.1C330.08 101.433 329.939 103.02 330.406 103.86C330.873 104.607 331.573 104.98 332.506 104.98C333.346 104.98 334.419 104.513 335.726 103.58C337.033 102.553 338.433 100.08 339.926 96.16L342.866 88.32H345.526L342.026 98.54C340.626 102.46 338.853 105.447 336.706 107.5C334.56 109.553 332.179 110.953 329.566 111.7C327.046 112.54 324.526 112.96 322.006 112.96C317.899 112.96 314.54 112.12 311.926 110.44C309.406 108.667 307.866 106.007 307.306 102.46C306.746 98.82 307.353 94.2934 309.126 88.88L322.006 50.24Z"/>
<path d="M404.737 39.18C401.284 39.18 397.924 40.6734 394.657 43.66C391.391 46.5534 388.497 50.4734 385.977 55.42C383.457 60.2734 381.451 65.7334 379.957 71.8C378.464 77.7734 377.717 83.84 377.717 90C377.717 95.04 378.744 98.68 380.797 100.92C382.851 103.16 385.557 104.28 388.917 104.28C391.624 104.28 394.377 103.487 397.177 101.9C399.977 100.313 402.824 97.3734 405.717 93.08L408.517 94.2C406.557 97.28 404.084 100.267 401.097 103.16C398.204 106.053 394.704 108.433 390.597 110.3C386.584 112.073 381.871 112.96 376.457 112.96C369.364 112.96 363.437 111.187 358.677 107.64C353.917 104.093 351.537 98.4934 351.537 90.84C351.537 85.9867 352.284 81.04 353.777 76C355.364 70.8667 357.604 65.9667 360.497 61.3C363.484 56.54 367.077 52.2934 371.277 48.56C375.477 44.8267 380.237 41.8867 385.557 39.74C390.877 37.5 396.664 36.38 402.917 36.38C408.704 36.38 413.184 37.8267 416.357 40.72C419.531 43.6134 421.117 47.02 421.117 50.94C421.117 53.9267 420.371 56.82 418.877 59.62C417.384 62.42 415.377 64.7534 412.857 66.62C410.431 68.3934 407.724 69.28 404.737 69.28C402.311 69.28 400.117 68.44 398.157 66.76C396.197 65.08 395.217 62.6534 395.217 59.48C395.217 54.9067 396.664 50.94 399.557 47.58C402.451 44.22 405.764 41.98 409.497 40.86C408.844 40.3 408.144 39.88 407.397 39.6C406.651 39.32 405.764 39.18 404.737 39.18Z"/>
<path d="M441.75 81.6C444.737 80.2 447.677 78.52 450.57 76.56C453.463 74.6 456.123 72.4534 458.55 70.12C462.283 66.48 465.317 62.3267 467.65 57.66C470.077 52.9934 471.29 47.9534 471.29 42.54C471.29 41.2334 471.103 40.3467 470.73 39.88C470.357 39.32 469.797 39.04 469.05 39.04C467.183 39.04 465.13 40.1134 462.89 42.26C460.743 44.3134 458.597 47.1134 456.45 50.66C454.303 54.1134 452.343 58.0334 450.57 62.42C448.89 66.8067 447.49 71.3334 446.37 76C445.343 80.5734 444.83 85.0067 444.83 89.3C444.83 94.7134 445.903 98.3534 448.05 100.22C450.197 101.993 452.997 102.88 456.45 102.88C458.317 102.88 461.117 102.18 464.85 100.78C468.583 99.38 472.317 96.8134 476.05 93.08L478.29 94.2C476.237 97.28 473.53 100.267 470.17 103.16C466.81 106.053 462.843 108.433 458.27 110.3C453.697 112.073 448.563 112.96 442.87 112.96C438.483 112.96 434.423 112.213 430.69 110.72C427.05 109.227 424.11 107.033 421.87 104.14C419.723 101.153 418.65 97.5134 418.65 93.22C418.65 87.7134 419.49 82.2534 421.17 76.84C422.943 71.4267 425.417 66.2934 428.59 61.44C431.763 56.5867 435.543 52.2934 439.93 48.56C444.41 44.7334 449.357 41.7467 454.77 39.6C460.183 37.4534 465.97 36.38 472.13 36.38C477.077 36.38 481.183 37.4067 484.45 39.46C487.81 41.42 489.49 44.5 489.49 48.7C489.49 52.2467 488.557 55.6067 486.69 58.78C484.823 61.86 482.257 64.7067 478.99 67.32C475.723 69.84 472.037 72.1267 467.93 74.18C463.823 76.2334 459.483 78.0067 454.91 79.5C450.43 80.9934 445.997 82.16 441.61 83L441.75 81.6Z"/>
<path d="M500.283 109.04C501.03 109.413 501.776 109.693 502.523 109.88C503.363 109.973 504.25 110.02 505.183 110.02C508.076 110.02 510.456 109.087 512.323 107.22C514.283 105.26 515.263 102.647 515.263 99.38C515.263 96.2067 514.516 92.8934 513.023 89.44C511.53 85.9867 509.57 82.3467 507.143 78.52C504.903 74.88 502.943 71.4734 501.263 68.3C499.583 65.0334 498.743 61.44 498.743 57.52C498.743 53.5067 499.77 49.9134 501.823 46.74C503.876 43.5667 506.956 41.0467 511.063 39.18C515.17 37.3134 520.35 36.38 526.603 36.38C530.523 36.38 534.303 36.8467 537.943 37.78C541.676 38.7134 544.71 40.3467 547.043 42.68C549.47 44.92 550.683 48.1867 550.683 52.48C550.683 54.3467 550.31 56.26 549.563 58.22C548.816 60.18 547.696 61.8134 546.203 63.12C544.803 64.3334 542.983 64.94 540.743 64.94C537.943 64.94 535.75 63.8667 534.163 61.72C532.576 59.48 531.783 56.6334 531.783 53.18C531.783 50.1934 532.25 47.5334 533.183 45.2C534.21 42.8667 535.236 41.14 536.263 40.02C535.516 39.6467 534.35 39.46 532.763 39.46C529.496 39.46 527.023 40.3934 525.343 42.26C523.756 44.1267 522.916 46.8334 522.823 50.38C522.823 52.4334 523.196 54.5334 523.943 56.68C524.783 58.7334 525.856 60.8334 527.163 62.98C528.47 65.0334 529.776 67.18 531.083 69.42C534.163 74.6467 536.31 78.94 537.523 82.3C538.83 85.5667 539.483 88.7867 539.483 91.96C539.483 95.7867 538.41 99.2867 536.263 102.46C534.21 105.633 531.083 108.2 526.883 110.16C522.776 112.027 517.643 112.96 511.483 112.96C507.096 112.96 502.896 112.4 498.883 111.28C494.963 110.253 491.743 108.433 489.223 105.82C486.796 103.207 485.583 99.6134 485.583 95.04C485.583 91.5867 486.47 88.6467 488.243 86.22C489.923 83.7934 492.21 82.58 495.103 82.58C497.81 82.58 500.003 83.7 501.683 85.94C503.363 88.18 504.203 91.1667 504.203 94.9C504.203 97.8867 503.69 100.64 502.663 103.16C501.73 105.68 500.936 107.64 500.283 109.04Z"/>
</mask>
<path d="M97.8596 10.9C96.9263 13.3267 95.6663 16.8734 94.0796 21.54C92.4929 26.1134 90.9996 32.0867 89.5996 39.46H86.7996C87.0796 38.1534 87.2663 36.8 87.3596 35.4C87.5463 34 87.6396 32.7867 87.6396 31.76C87.6396 27.9334 86.7996 24.7134 85.1196 22.1C83.5329 19.3934 81.2463 17.34 78.2596 15.94C75.2729 14.4467 71.6796 13.7 67.4796 13.7C63.4663 13.7 59.9196 14.7267 56.8396 16.78C53.8529 18.8334 52.3596 22.3334 52.3596 27.28C52.3596 30.4534 53.1063 33.58 54.5996 36.66C56.0929 39.6467 58.0063 42.6334 60.3396 45.62C62.7663 48.6067 65.2863 51.64 67.8996 54.72C70.6063 57.7067 73.1263 60.7867 75.4596 63.96C77.8863 67.04 79.8463 70.3067 81.3396 73.76C82.833 77.2134 83.5796 80.8534 83.5796 84.68C83.5796 89.8134 82.2263 94.2 79.5196 97.84C76.8129 101.387 73.3596 104.28 69.1596 106.52C64.9596 108.76 60.5263 110.393 55.8596 111.42C51.1929 112.447 46.8529 112.96 42.8396 112.96C37.9863 112.96 34.0196 112.727 30.9396 112.26C27.8596 111.793 25.1996 111.093 22.9596 110.16C20.7196 109.133 18.2929 107.92 15.6796 106.52C14.7463 105.96 13.8596 105.493 13.0196 105.12C12.1796 104.653 11.4796 104.42 10.9196 104.42C9.70628 104.42 8.72628 104.933 7.97961 105.96C7.23294 106.987 6.20628 108.993 4.89961 111.98H2.09961C2.93961 109.927 3.82628 107.547 4.75961 104.84C5.69294 102.133 6.71961 98.68 7.83961 94.48C8.95961 90.1867 10.2196 84.82 11.6196 78.38H14.4196C13.9529 79.78 13.5796 81.5534 13.2996 83.7C13.1129 85.7534 13.0663 87.62 13.1596 89.3C13.4396 96.1134 15.5863 101.247 19.5996 104.7C23.6129 108.06 29.0729 109.74 35.9796 109.74C42.5129 109.74 46.8529 108.527 48.9996 106.1C51.2396 103.58 52.3596 100.5 52.3596 96.86C52.3596 92.94 51.6596 89.3 50.2596 85.94C48.9529 82.4867 47.2263 79.2667 45.0796 76.28C42.9329 73.2 40.6463 70.2134 38.2196 67.32C35.8863 64.3334 33.6463 61.3467 31.4996 58.36C29.3529 55.3734 27.5796 52.2467 26.1796 48.98C24.8729 45.62 24.2196 42.0734 24.2196 38.34C24.2196 33.3934 25.3396 29.1467 27.5796 25.6C29.9129 22.0534 32.9463 19.1134 36.6796 16.78C40.4129 14.4467 44.4263 12.72 48.7196 11.6C53.0129 10.48 57.1196 9.92002 61.0396 9.92002C67.6663 9.92002 72.9396 10.76 76.8596 12.44C80.7796 14.0267 83.7663 15.3334 85.8196 16.36C86.5663 16.7334 87.4063 17.1534 88.3396 17.62C89.2729 18.0867 89.9729 18.32 90.4396 18.32C91.7463 18.32 93.2863 15.8467 95.0596 10.9H97.8596Z" stroke="#DC965A" stroke-opacity="0.35" stroke-width="2" mask="url(#path-1-outside-1_3076_91650)"/>
<path d="M114.992 81.6C117.979 80.2 120.919 78.52 123.812 76.56C126.705 74.6 129.365 72.4534 131.792 70.12C135.525 66.48 138.559 62.3267 140.892 57.66C143.319 52.9934 144.532 47.9534 144.532 42.54C144.532 41.2334 144.345 40.3467 143.972 39.88C143.599 39.32 143.039 39.04 142.292 39.04C140.425 39.04 138.372 40.1134 136.132 42.26C133.985 44.3134 131.839 47.1134 129.692 50.66C127.545 54.1134 125.585 58.0334 123.812 62.42C122.132 66.8067 120.732 71.3334 119.612 76C118.585 80.5734 118.072 85.0067 118.072 89.3C118.072 94.7134 119.145 98.3534 121.292 100.22C123.439 101.993 126.239 102.88 129.692 102.88C131.559 102.88 134.359 102.18 138.092 100.78C141.825 99.38 145.559 96.8134 149.292 93.08L151.532 94.2C149.479 97.28 146.772 100.267 143.412 103.16C140.052 106.053 136.085 108.433 131.512 110.3C126.939 112.073 121.805 112.96 116.112 112.96C111.725 112.96 107.665 112.213 103.932 110.72C100.292 109.227 97.3521 107.033 95.1121 104.14C92.9654 101.153 91.8921 97.5134 91.8921 93.22C91.8921 87.7134 92.7321 82.2534 94.4121 76.84C96.1854 71.4267 98.6588 66.2934 101.832 61.44C105.005 56.5867 108.785 52.2934 113.172 48.56C117.652 44.7334 122.599 41.7467 128.012 39.6C133.425 37.4534 139.212 36.38 145.372 36.38C150.319 36.38 154.425 37.4067 157.692 39.46C161.052 41.42 162.732 44.5 162.732 48.7C162.732 52.2467 161.799 55.6067 159.932 58.78C158.065 61.86 155.499 64.7067 152.232 67.32C148.965 69.84 145.279 72.1267 141.172 74.18C137.065 76.2334 132.725 78.0067 128.152 79.5C123.672 80.9934 119.239 82.16 114.852 83L114.992 81.6Z" stroke="#DC965A" stroke-opacity="0.35" stroke-width="2" mask="url(#path-1-outside-1_3076_91650)"/>
<path d="M186.965 111H162.185L179.265 50.24C179.825 48.0934 180.012 46.6 179.825 45.76C179.639 44.8267 179.032 44.36 178.005 44.36C176.605 44.36 175.299 45.0134 174.085 46.32C172.872 47.5334 171.612 49.82 170.305 53.18L167.085 61.72H164.425L168.345 50.8C169.652 47.2534 171.285 44.4534 173.245 42.4C175.299 40.2534 177.679 38.7134 180.385 37.78C183.092 36.8467 186.032 36.38 189.205 36.38C192.379 36.38 194.899 36.9867 196.765 38.2C198.632 39.32 199.985 40.86 200.825 42.82C201.665 44.78 202.085 46.9267 202.085 49.26C202.179 51.5 201.945 53.74 201.385 55.98L186.965 111ZM222.665 39.18C220.892 39.18 218.979 39.46 216.925 40.02C214.965 40.58 212.865 42.0267 210.625 44.36C208.479 46.6 206.145 50.24 203.625 55.28C201.199 60.32 198.585 67.32 195.785 76.28C192.985 85.24 190.045 96.6734 186.965 110.58L189.905 90.98C192.705 80.06 195.272 71.1 197.605 64.1C199.939 57.0067 202.272 51.4534 204.605 47.44C206.939 43.3334 209.505 40.4867 212.305 38.9C215.105 37.22 218.372 36.38 222.105 36.38C226.492 36.38 229.852 37.6867 232.185 40.3C234.519 42.9134 235.685 46.1334 235.685 49.96C235.685 53.04 234.985 55.9334 233.585 58.64C232.279 61.2534 230.412 63.4 227.985 65.08C225.652 66.6667 222.945 67.46 219.865 67.46C216.412 67.46 213.799 66.5734 212.025 64.8C210.252 63.0267 209.365 60.4134 209.365 56.96C209.365 54.16 210.065 51.5467 211.465 49.12C212.865 46.6934 214.732 44.64 217.065 42.96C219.399 41.1867 221.919 40.0667 224.625 39.6C224.345 39.5067 224.019 39.4134 223.645 39.32C223.365 39.2267 223.039 39.18 222.665 39.18Z" stroke="#DC965A" stroke-opacity="0.35" stroke-width="2" mask="url(#path-1-outside-1_3076_91650)"/>
<path d="M296.449 69.56C291.875 67.4134 288.049 64.4734 284.969 60.74C281.889 56.9134 280.349 52.62 280.349 47.86C280.349 44.3134 281.282 41.5134 283.149 39.46C285.109 37.4067 287.815 36.38 291.269 36.38C295.002 36.38 297.709 37.5934 299.389 40.02C301.069 42.4467 301.909 45.8067 301.909 50.1C301.909 55.2334 301.302 60.6934 300.089 66.48C298.969 72.2667 297.195 77.9134 294.769 83.42C292.435 88.9267 289.402 93.92 285.669 98.4C282.029 102.787 277.688 106.333 272.648 109.04C267.702 111.653 262.009 112.96 255.569 112.96C249.782 112.96 245.255 112.12 241.989 110.44C238.815 108.667 236.575 106.473 235.269 103.86C233.962 101.153 233.309 98.4 233.309 95.6C233.309 89.5334 235.082 83.56 238.629 77.68C242.175 71.7067 247.029 65.78 253.189 59.9C259.442 54.02 266.442 48.1867 274.189 42.4C271.295 42.4934 268.822 43.24 266.769 44.64C264.809 45.9467 263.035 47.44 261.449 49.12C259.862 50.8 258.275 52.2934 256.689 53.6C255.195 54.8134 253.469 55.42 251.509 55.42C250.015 55.42 248.709 55.0934 247.589 54.44C246.562 53.6934 245.395 53.32 244.089 53.32C242.875 53.32 241.942 53.74 241.289 54.58C240.635 55.42 240.029 56.7734 239.469 58.64L238.489 61.58H235.829L238.909 51.36C240.589 45.3867 242.595 41.3734 244.929 39.32C247.262 37.2667 249.642 36.24 252.069 36.24C253.842 36.24 255.382 36.5667 256.689 37.22C257.995 37.8734 259.442 38.5734 261.029 39.32C262.615 39.9734 264.762 40.3 267.469 40.3C268.402 40.3 269.662 40.2067 271.249 40.02C272.835 39.74 274.609 39.1334 276.569 38.2L277.969 35.54L280.909 36.94C277.829 41.98 274.982 47.2534 272.368 52.76C269.848 58.1734 267.655 63.5867 265.789 69C263.922 74.32 262.475 79.3134 261.449 83.98C260.422 88.6467 259.909 92.66 259.909 96.02C259.909 99.1934 260.375 101.573 261.309 103.16C262.242 104.747 263.922 105.54 266.349 105.54C269.242 105.54 271.995 104.887 274.609 103.58C277.222 102.273 279.649 100.453 281.889 98.12C284.129 95.7867 286.182 93.1267 288.049 90.14C289.915 87.06 291.549 83.7934 292.949 80.34C294.349 76.7934 295.515 73.2 296.449 69.56Z" stroke="#DC965A" stroke-opacity="0.35" stroke-width="2" mask="url(#path-1-outside-1_3076_91650)"/>
<path d="M327.886 16.36C327.886 11.32 329.519 7.5867 332.786 5.16003C336.053 2.73336 340.113 1.52002 344.966 1.52002C349.073 1.52002 352.153 2.31336 354.206 3.90002C356.353 5.48669 357.426 7.86669 357.426 11.04C357.426 15.4267 355.746 18.9734 352.386 21.68C349.12 24.2934 345.06 25.6 340.206 25.6C336.193 25.6 333.113 24.8067 330.966 23.22C328.913 21.6334 327.886 19.3467 327.886 16.36ZM322.006 50.24C323.313 46.32 322.893 44.36 320.746 44.36C319.346 44.36 318.04 45.0134 316.826 46.32C315.613 47.5334 314.353 49.82 313.046 53.18L309.826 61.72H307.166L311.086 50.8C312.393 47.2534 314.026 44.4534 315.986 42.4C318.04 40.2534 320.419 38.7134 323.126 37.78C325.833 36.8467 328.773 36.38 331.946 36.38C335.493 36.38 338.34 36.9867 340.486 38.2C342.633 39.4134 344.173 41 345.106 42.96C346.04 44.8267 346.506 46.9267 346.506 49.26C346.506 51.5 346.133 53.74 345.386 55.98L330.826 99.1C330.08 101.433 329.939 103.02 330.406 103.86C330.873 104.607 331.573 104.98 332.506 104.98C333.346 104.98 334.419 104.513 335.726 103.58C337.033 102.553 338.433 100.08 339.926 96.16L342.866 88.32H345.526L342.026 98.54C340.626 102.46 338.853 105.447 336.706 107.5C334.56 109.553 332.179 110.953 329.566 111.7C327.046 112.54 324.526 112.96 322.006 112.96C317.899 112.96 314.54 112.12 311.926 110.44C309.406 108.667 307.866 106.007 307.306 102.46C306.746 98.82 307.353 94.2934 309.126 88.88L322.006 50.24Z" stroke="#DC965A" stroke-opacity="0.35" stroke-width="2" mask="url(#path-1-outside-1_3076_91650)"/>
<path d="M404.737 39.18C401.284 39.18 397.924 40.6734 394.657 43.66C391.391 46.5534 388.497 50.4734 385.977 55.42C383.457 60.2734 381.451 65.7334 379.957 71.8C378.464 77.7734 377.717 83.84 377.717 90C377.717 95.04 378.744 98.68 380.797 100.92C382.851 103.16 385.557 104.28 388.917 104.28C391.624 104.28 394.377 103.487 397.177 101.9C399.977 100.313 402.824 97.3734 405.717 93.08L408.517 94.2C406.557 97.28 404.084 100.267 401.097 103.16C398.204 106.053 394.704 108.433 390.597 110.3C386.584 112.073 381.871 112.96 376.457 112.96C369.364 112.96 363.437 111.187 358.677 107.64C353.917 104.093 351.537 98.4934 351.537 90.84C351.537 85.9867 352.284 81.04 353.777 76C355.364 70.8667 357.604 65.9667 360.497 61.3C363.484 56.54 367.077 52.2934 371.277 48.56C375.477 44.8267 380.237 41.8867 385.557 39.74C390.877 37.5 396.664 36.38 402.917 36.38C408.704 36.38 413.184 37.8267 416.357 40.72C419.531 43.6134 421.117 47.02 421.117 50.94C421.117 53.9267 420.371 56.82 418.877 59.62C417.384 62.42 415.377 64.7534 412.857 66.62C410.431 68.3934 407.724 69.28 404.737 69.28C402.311 69.28 400.117 68.44 398.157 66.76C396.197 65.08 395.217 62.6534 395.217 59.48C395.217 54.9067 396.664 50.94 399.557 47.58C402.451 44.22 405.764 41.98 409.497 40.86C408.844 40.3 408.144 39.88 407.397 39.6C406.651 39.32 405.764 39.18 404.737 39.18Z" stroke="#DC965A" stroke-opacity="0.35" stroke-width="2" mask="url(#path-1-outside-1_3076_91650)"/>
<path d="M441.75 81.6C444.737 80.2 447.677 78.52 450.57 76.56C453.463 74.6 456.123 72.4534 458.55 70.12C462.283 66.48 465.317 62.3267 467.65 57.66C470.077 52.9934 471.29 47.9534 471.29 42.54C471.29 41.2334 471.103 40.3467 470.73 39.88C470.357 39.32 469.797 39.04 469.05 39.04C467.183 39.04 465.13 40.1134 462.89 42.26C460.743 44.3134 458.597 47.1134 456.45 50.66C454.303 54.1134 452.343 58.0334 450.57 62.42C448.89 66.8067 447.49 71.3334 446.37 76C445.343 80.5734 444.83 85.0067 444.83 89.3C444.83 94.7134 445.903 98.3534 448.05 100.22C450.197 101.993 452.997 102.88 456.45 102.88C458.317 102.88 461.117 102.18 464.85 100.78C468.583 99.38 472.317 96.8134 476.05 93.08L478.29 94.2C476.237 97.28 473.53 100.267 470.17 103.16C466.81 106.053 462.843 108.433 458.27 110.3C453.697 112.073 448.563 112.96 442.87 112.96C438.483 112.96 434.423 112.213 430.69 110.72C427.05 109.227 424.11 107.033 421.87 104.14C419.723 101.153 418.65 97.5134 418.65 93.22C418.65 87.7134 419.49 82.2534 421.17 76.84C422.943 71.4267 425.417 66.2934 428.59 61.44C431.763 56.5867 435.543 52.2934 439.93 48.56C444.41 44.7334 449.357 41.7467 454.77 39.6C460.183 37.4534 465.97 36.38 472.13 36.38C477.077 36.38 481.183 37.4067 484.45 39.46C487.81 41.42 489.49 44.5 489.49 48.7C489.49 52.2467 488.557 55.6067 486.69 58.78C484.823 61.86 482.257 64.7067 478.99 67.32C475.723 69.84 472.037 72.1267 467.93 74.18C463.823 76.2334 459.483 78.0067 454.91 79.5C450.43 80.9934 445.997 82.16 441.61 83L441.75 81.6Z" stroke="#DC965A" stroke-opacity="0.35" stroke-width="2" mask="url(#path-1-outside-1_3076_91650)"/>
<path d="M500.283 109.04C501.03 109.413 501.776 109.693 502.523 109.88C503.363 109.973 504.25 110.02 505.183 110.02C508.076 110.02 510.456 109.087 512.323 107.22C514.283 105.26 515.263 102.647 515.263 99.38C515.263 96.2067 514.516 92.8934 513.023 89.44C511.53 85.9867 509.57 82.3467 507.143 78.52C504.903 74.88 502.943 71.4734 501.263 68.3C499.583 65.0334 498.743 61.44 498.743 57.52C498.743 53.5067 499.77 49.9134 501.823 46.74C503.876 43.5667 506.956 41.0467 511.063 39.18C515.17 37.3134 520.35 36.38 526.603 36.38C530.523 36.38 534.303 36.8467 537.943 37.78C541.676 38.7134 544.71 40.3467 547.043 42.68C549.47 44.92 550.683 48.1867 550.683 52.48C550.683 54.3467 550.31 56.26 549.563 58.22C548.816 60.18 547.696 61.8134 546.203 63.12C544.803 64.3334 542.983 64.94 540.743 64.94C537.943 64.94 535.75 63.8667 534.163 61.72C532.576 59.48 531.783 56.6334 531.783 53.18C531.783 50.1934 532.25 47.5334 533.183 45.2C534.21 42.8667 535.236 41.14 536.263 40.02C535.516 39.6467 534.35 39.46 532.763 39.46C529.496 39.46 527.023 40.3934 525.343 42.26C523.756 44.1267 522.916 46.8334 522.823 50.38C522.823 52.4334 523.196 54.5334 523.943 56.68C524.783 58.7334 525.856 60.8334 527.163 62.98C528.47 65.0334 529.776 67.18 531.083 69.42C534.163 74.6467 536.31 78.94 537.523 82.3C538.83 85.5667 539.483 88.7867 539.483 91.96C539.483 95.7867 538.41 99.2867 536.263 102.46C534.21 105.633 531.083 108.2 526.883 110.16C522.776 112.027 517.643 112.96 511.483 112.96C507.096 112.96 502.896 112.4 498.883 111.28C494.963 110.253 491.743 108.433 489.223 105.82C486.796 103.207 485.583 99.6134 485.583 95.04C485.583 91.5867 486.47 88.6467 488.243 86.22C489.923 83.7934 492.21 82.58 495.103 82.58C497.81 82.58 500.003 83.7 501.683 85.94C503.363 88.18 504.203 91.1667 504.203 94.9C504.203 97.8867 503.69 100.64 502.663 103.16C501.73 105.68 500.936 107.64 500.283 109.04Z" stroke="#DC965A" stroke-opacity="0.35" stroke-width="2" mask="url(#path-1-outside-1_3076_91650)"/>
</svg>
